<?xml version="1.0" encoding="utf-8"?>
<!-- Generator: Adobe Illustrator 27.7.0, SVG Export Plug-In . SVG Version: 6.00 Build 0)  -->
<svg version="1.1" id="Layer_1" xmlns="http://www.w3.org/2000/svg" xmlns:xlink="http://www.w3.org/1999/xlink" x="0px" y="0px"
	 viewBox="0 0 1080 1080" style="enable-background:new 0 0 1080 1080;" xml:space="preserve">
<style type="text/css">
	.st0{fill:none;stroke:#3D80FF;stroke-width:56;stroke-miterlimit:10;}
	.st1{fill:none;stroke:#3D80FF;stroke-width:56;stroke-linecap:round;stroke-miterlimit:10;}
	.st2{fill:#3D80FF;stroke:#3D80FF;stroke-width:13;stroke-miterlimit:10;}
</style>
<image style="display:none;overflow:visible;opacity:0.43;enable-background:new    ;" width="225" height="225" xlink:href="../../Downloads/download.png"  transform="matrix(5.4736 0 0 5.4736 -129 -53)">
</image>
<path class="st0" d="M223.4,574.9c-6.5,4.2-14.8-1.6-14-9.3l29.2-284.1c1.2-13.7,12.6-24.2,26.4-24.2h540.7
	c13.7,0,25.2,10.5,26.4,24.2l54.5,624.6c3.3,37.4-26.1,69.5-63.6,69.8l-176.5,1.5c-7.2,0.1-11.8-7.8-8.3-14.1
	c27.2-49.5,70.4-184.9-22.6-312.5C500.1,501.2,322.6,510.4,223.4,574.9z"/>
<path class="st1" d="M409.1,340.8V168.5c0-21.1,5.9-41.7,17.2-59.3C444.4,81,478.2,45.9,534.7,46"/>
<path class="st2" d="M612.6,823.5c0-0.4,0-0.8,0-1.3c-0.1-25.3-4.3-50.2-12.3-73.9c-6.5-19.4-15.6-37.7-26.9-54.7l0.2-0.1l-6.9-9.4
	c-10.6-14.3-22.8-27.5-36.4-39c-13.7-11.6-28.6-21.7-44.5-29.9c-1.1-0.5-2-1.1-3.1-1.6c-1.1-0.5-2-1.1-3.1-1.5
	c-0.5-0.2-1.1-0.5-1.6-0.7c-9.8-4.6-19.9-8.5-30.2-11.7c-4.3-1.4-8.7-2.5-13.2-3.7c-3.4-0.8-6.8-1.6-10.2-2.3l0,0h-0.1
	c-14.8-2.9-29.9-4.4-45.1-4.5l0,0c-0.5,0-1.1,0-1.6,0l0,0c-1.7,0-3.4,0-5.1,0.1c-13.5,0.3-26.8,1.8-39.9,4.4
	c-3.5,0.7-7.1,1.5-10.5,2.3c-17.7,4.3-34.8,10.8-50.9,19.2c-15.9,8.2-30.8,18.2-44.5,29.9c-13.6,11.6-25.9,24.7-36.4,39l-6.9,9.4
	l0.2,0.1c-11.4,16.9-20.4,35.4-26.9,54.7c-8.1,23.8-12.2,48.6-12.3,73.9c0,0.4,0,0.8,0,1.3c0,25.5,4.1,50.5,12.1,74.4
	c6.5,19.5,15.6,38,27,55.1l-0.2,0.1l6.8,9.3c0.2,0.3,0.5,0.6,0.7,0.9c0.4,0.6,0.8,1.2,1.3,1.7c0.1,0.2,0.3,0.4,0.4,0.5
	c0.5,0.7,1.1,1.4,1.6,2.1c0.1,0.1,0.2,0.3,0.3,0.4c0.6,0.7,1.2,1.5,1.8,2.2c0.1,0.1,0.2,0.2,0.2,0.3c0.6,0.7,1.3,1.6,1.9,2.3
	c0.1,0.1,0.2,0.2,0.3,0.3c0.6,0.7,1.3,1.5,1.9,2.2c0.1,0.1,0.2,0.2,0.3,0.3c0.6,0.7,1.3,1.5,1.9,2.2c0.1,0.1,0.2,0.2,0.3,0.3
	c0.6,0.7,1.3,1.5,1.9,2.1c0.1,0.1,0.2,0.2,0.3,0.4c0.6,0.7,1.3,1.4,1.9,2.1c0.1,0.1,0.2,0.2,0.3,0.4c0.6,0.7,1.3,1.4,1.9,2.1
	c0.1,0.1,0.2,0.3,0.4,0.4c0.6,0.6,1.3,1.4,2,2c0.1,0.1,0.3,0.3,0.4,0.4c0.6,0.6,1.3,1.4,2,2c0.1,0.1,0.3,0.3,0.4,0.4
	c0.6,0.6,1.4,1.3,2,1.9c0.1,0.1,0.3,0.3,0.4,0.4c0.6,0.6,1.4,1.3,2,1.9c0.1,0.1,0.3,0.3,0.4,0.4c0.6,0.6,1.4,1.3,2,1.9
	c0.1,0.1,0.3,0.3,0.4,0.4c0.6,0.6,1.4,1.3,2,1.8c0.2,0.1,0.3,0.3,0.5,0.4c0.6,0.5,1.4,1.2,2,1.7c0,0,0,0,0.1,0.1l0,0
	c0.2,0.1,0.3,0.3,0.5,0.4c0.6,0.5,1.4,1.2,2,1.7c0.2,0.2,0.4,0.3,0.6,0.5c0.6,0.5,1.4,1.1,2,1.7c0.2,0.2,0.4,0.3,0.7,0.5
	c0.6,0.5,1.3,1.1,2,1.6c0.2,0.2,0.5,0.4,0.7,0.6c0.6,0.5,1.3,0.9,1.9,1.5c0.3,0.2,0.5,0.4,0.8,0.6c0.6,0.4,1.3,0.9,1.9,1.4
	c0.3,0.2,0.6,0.4,0.9,0.6c0.6,0.4,1.2,0.8,1.8,1.3c0.3,0.2,0.6,0.4,0.9,0.7c0.6,0.4,1.2,0.8,1.8,1.3c0.3,0.2,0.7,0.4,1.1,0.7
	c0.6,0.4,1.2,0.8,1.8,1.2c0.3,0.2,0.7,0.5,1.1,0.7c0.5,0.4,1.2,0.7,1.7,1.2c0.4,0.2,0.7,0.5,1.2,0.7c0.5,0.3,1.2,0.7,1.7,1.1
	c0.4,0.2,0.8,0.5,1.2,0.7c0.5,0.3,1.2,0.7,1.7,1.1c0.4,0.2,0.8,0.5,1.3,0.7c0.5,0.3,1.1,0.6,1.7,0.9c0.4,0.2,0.8,0.5,1.3,0.7
	c0.5,0.3,1.1,0.6,1.6,0.9c0.4,0.2,0.8,0.5,1.4,0.7c0.5,0.3,1.1,0.6,1.6,0.9c0.4,0.2,0.9,0.5,1.4,0.7c0.5,0.3,1.1,0.5,1.6,0.8
	c0.4,0.2,0.9,0.5,1.5,0.7c0.5,0.2,0.9,0.5,1.5,0.7c0,0,0.1,0,0.1,0.1c0,0,0,0,0.1,0c0.2,0.1,0.4,0.2,0.6,0.3
	c0.2,0.1,0.5,0.2,0.7,0.4c0.3,0.1,0.5,0.3,0.8,0.4c0.2,0.1,0.5,0.2,0.7,0.3c0.3,0.1,0.5,0.3,0.8,0.4c0.2,0.1,0.4,0.2,0.7,0.3
	c0.3,0.1,0.5,0.3,0.8,0.4c0.2,0.1,0.4,0.2,0.6,0.3c0.3,0.1,0.6,0.3,0.8,0.4s0.4,0.2,0.6,0.3c0.3,0.1,0.6,0.3,0.9,0.4
	c0.2,0.1,0.4,0.2,0.6,0.3c0.3,0.1,0.6,0.3,0.9,0.4c0.2,0.1,0.4,0.2,0.6,0.3c0.3,0.1,0.6,0.3,0.9,0.4c0.2,0.1,0.4,0.2,0.6,0.3
	c0.3,0.1,0.6,0.3,0.9,0.4c0.2,0.1,0.4,0.2,0.5,0.2c0.3,0.1,0.6,0.3,1.1,0.4c0.2,0.1,0.3,0.1,0.5,0.2c0.3,0.1,0.7,0.3,1.1,0.4
	c0.2,0.1,0.3,0.1,0.5,0.2c0.3,0.1,0.7,0.3,1.1,0.4c0.2,0.1,0.3,0.1,0.5,0.2c0.3,0.1,0.7,0.3,1.1,0.4c0.2,0.1,0.3,0.1,0.5,0.2
	c0.3,0.1,0.7,0.3,1.1,0.4c0.2,0.1,0.3,0.1,0.5,0.2c0.4,0.1,0.7,0.3,1.2,0.4c0.2,0.1,0.3,0.1,0.5,0.2c0.4,0.1,0.7,0.3,1.2,0.4
	c0.1,0.1,0.3,0.1,0.4,0.2c0.4,0.1,0.7,0.3,1.2,0.4c0.1,0.1,0.3,0.1,0.4,0.2c0.4,0.1,0.7,0.3,1.2,0.4c0.1,0,0.3,0.1,0.4,0.1
	c0.4,0.1,0.8,0.3,1.2,0.4c0.1,0,0.3,0.1,0.4,0.1c0.4,0.1,0.8,0.3,1.2,0.4c0.1,0,0.3,0.1,0.4,0.1c0.4,0.1,0.8,0.3,1.3,0.4
	c0.1,0,0.3,0.1,0.4,0.1c0.4,0.1,0.8,0.3,1.3,0.4c0.1,0,0.2,0.1,0.4,0.1c0.4,0.1,0.8,0.3,1.3,0.4c0.1,0,0.2,0.1,0.4,0.1
	c0.4,0.1,0.8,0.3,1.3,0.4c0.1,0,0.2,0.1,0.3,0.1c0.4,0.1,0.8,0.3,1.3,0.4c0.1,0,0.2,0.1,0.3,0.1c0.4,0.1,0.8,0.3,1.4,0.4
	c0.1,0,0.2,0.1,0.3,0.1c0.4,0.1,0.9,0.2,1.4,0.4c0.1,0,0.2,0.1,0.3,0.1c0.4,0.1,0.9,0.2,1.4,0.4c0.1,0,0.2,0,0.2,0.1
	c0.4,0.1,0.9,0.2,1.4,0.4c0.1,0,0.1,0,0.2,0.1c0.5,0.1,0.9,0.2,1.5,0.4c0.1,0,0.1,0,0.2,0.1c0.5,0.1,0.9,0.2,1.5,0.4
	c0.1,0,0.1,0,0.2,0c0.5,0.1,1.1,0.2,1.5,0.4h0.1l0,0c0.1,0,0.2,0.1,0.3,0.1c0.4,0.1,0.8,0.2,1.3,0.3h0.1c0.5,0.1,1.1,0.2,1.7,0.4
	c0,0,0,0,0.1,0c0.5,0.1,1.2,0.2,1.7,0.4l0,0c16.7,3.8,34,5.7,51.3,5.7c17.4,0,34.5-1.9,51.3-5.7l0,0c0.5-0.1,1.2-0.2,1.7-0.4l0,0
	c0.5-0.1,1.2-0.2,1.7-0.4h0.1c0.4-0.1,0.8-0.2,1.3-0.3c0.1,0,0.2-0.1,0.3-0.1l0,0c0,0,0,0,0.1,0c0.5-0.1,1.1-0.2,1.6-0.4h0.1
	c0.5-0.1,1.1-0.2,1.5-0.4c0.1,0,0.1,0,0.2,0c0.5-0.1,0.9-0.2,1.5-0.4c0.1,0,0.1,0,0.2-0.1c0.5-0.1,0.9-0.2,1.5-0.4
	c0.1,0,0.1,0,0.2-0.1c0.4-0.1,0.9-0.2,1.4-0.4c0.1,0,0.2,0,0.3-0.1c0.4-0.1,0.9-0.3,1.4-0.4c0.1,0,0.2-0.1,0.3-0.1
	c0.4-0.1,0.9-0.3,1.4-0.4c0.1,0,0.2-0.1,0.3-0.1c0.4-0.1,0.8-0.3,1.4-0.4c0.1,0,0.2-0.1,0.3-0.1c0.4-0.1,0.8-0.3,1.3-0.4
	c0.1,0,0.2-0.1,0.3-0.1c0.4-0.1,0.8-0.3,1.3-0.4c0.1,0,0.2-0.1,0.4-0.1c0.4-0.1,0.8-0.3,1.3-0.4c0.1,0,0.2-0.1,0.4-0.1
	c0.4-0.1,0.8-0.3,1.3-0.4c0.1,0,0.3-0.1,0.4-0.1c0.4-0.1,0.8-0.3,1.3-0.4c0.1,0,0.3-0.1,0.4-0.1c0.4-0.1,0.8-0.3,1.2-0.4
	c0.1,0,0.3-0.1,0.4-0.1c0.4-0.1,0.7-0.3,1.2-0.4c0.1-0.1,0.3-0.1,0.4-0.2c0.4-0.1,0.7-0.3,1.2-0.4c0.1-0.1,0.3-0.1,0.4-0.2
	c0.4-0.1,0.7-0.3,1.2-0.4c0.1-0.1,0.3-0.1,0.4-0.2c0.4-0.1,0.7-0.3,1.2-0.4c0.1-0.1,0.3-0.1,0.4-0.2c0.4-0.1,0.7-0.3,1.2-0.4
	c0.2-0.1,0.3-0.1,0.5-0.2c0.4-0.1,0.7-0.3,1.1-0.4c0.2-0.1,0.3-0.1,0.5-0.2c0.3-0.1,0.7-0.3,1.1-0.4c0.2-0.1,0.3-0.1,0.5-0.2
	c0.3-0.1,0.7-0.3,1.1-0.4c0.2-0.1,0.3-0.1,0.5-0.2c0.3-0.1,0.7-0.3,1.1-0.4c0.2-0.1,0.3-0.1,0.5-0.2c0.3-0.1,0.7-0.3,1.1-0.4
	c0.2-0.1,0.3-0.2,0.5-0.2c0.3-0.1,0.7-0.3,1.1-0.4c0.2-0.1,0.3-0.2,0.5-0.2c0.3-0.1,0.6-0.3,1.1-0.4c0.2-0.1,0.3-0.2,0.5-0.2
	c0.3-0.1,0.6-0.3,0.9-0.4c0.2-0.1,0.4-0.2,0.5-0.3c0.3-0.1,0.6-0.3,0.9-0.4c0.2-0.1,0.4-0.2,0.5-0.3c0.3-0.1,0.6-0.3,0.9-0.4
	c0.2-0.1,0.4-0.2,0.6-0.3c0.3-0.1,0.6-0.3,0.9-0.4c0.2-0.1,0.4-0.2,0.6-0.3c0.3-0.1,0.6-0.3,0.9-0.4c0.2-0.1,0.4-0.2,0.6-0.3
	c0.2-0.1,0.5-0.2,0.7-0.4h0.1c0,0,0.1,0,0.1-0.1c0.4-0.2,0.8-0.4,1.4-0.7s1.1-0.5,1.6-0.8s1.1-0.5,1.5-0.8c0.5-0.2,0.9-0.5,1.5-0.7
	c0.5-0.3,1.1-0.6,1.6-0.8c0.4-0.2,0.8-0.5,1.4-0.7c0.5-0.3,1.1-0.6,1.7-0.9c0.4-0.2,0.8-0.5,1.3-0.7c0.5-0.3,1.2-0.6,1.7-1.1
	c0.4-0.2,0.8-0.5,1.2-0.7c0.5-0.3,1.2-0.7,1.7-1.1c0.4-0.2,0.7-0.5,1.2-0.7c0.5-0.3,1.2-0.7,1.7-1.2c0.3-0.2,0.7-0.4,1.1-0.7
	c0.6-0.4,1.2-0.7,1.8-1.2c0.3-0.2,0.7-0.4,1.1-0.7c0.6-0.4,1.2-0.8,1.8-1.2c0.3-0.2,0.7-0.4,1.1-0.7c0.6-0.4,1.2-0.8,1.8-1.3
	c0.3-0.2,0.6-0.4,0.9-0.7c0.6-0.4,1.2-0.8,1.8-1.3c0.3-0.2,0.6-0.4,0.9-0.7c0.6-0.4,1.2-0.8,1.8-1.4c0.3-0.2,0.6-0.4,0.9-0.6
	c0.6-0.4,1.3-0.9,1.8-1.4c0.3-0.2,0.5-0.4,0.8-0.6c0.6-0.5,1.3-0.9,1.9-1.5c0.2-0.2,0.5-0.4,0.8-0.6c0.6-0.5,1.3-1.1,1.9-1.6
	c0.2-0.2,0.4-0.4,0.7-0.5c0.6-0.5,1.4-1.2,2-1.7c0.2-0.1,0.4-0.3,0.5-0.4l0,0c0,0,0,0,0.1-0.1c0.6-0.5,1.3-1.2,2-1.7
	c0.2-0.1,0.3-0.3,0.5-0.4c0.6-0.6,1.4-1.2,2-1.8c0.1-0.1,0.3-0.3,0.5-0.4c0.6-0.6,1.4-1.3,2-1.9c0.1-0.1,0.3-0.3,0.4-0.4
	c0.6-0.6,1.4-1.3,2-1.9c0.1-0.1,0.3-0.2,0.4-0.4c0.6-0.6,1.4-1.3,2-2c0.1-0.1,0.2-0.2,0.4-0.4c0.6-0.6,1.4-1.4,2-2
	c0.1-0.1,0.2-0.2,0.3-0.3c0.7-0.7,1.4-1.4,2-2.1c0.1-0.1,0.2-0.2,0.3-0.3c0.6-0.7,1.4-1.5,2-2.1c0.1-0.1,0.2-0.2,0.3-0.3
	c0.6-0.7,1.4-1.5,2-2.2c0.1-0.1,0.2-0.2,0.2-0.3c0.6-0.7,1.4-1.5,2-2.3c0.1-0.1,0.1-0.1,0.2-0.2c0.6-0.7,1.4-1.6,2-2.3
	c0.1-0.1,0.1-0.1,0.2-0.2c0.7-0.8,1.4-1.6,2.1-2.4l0.1-0.1c0.6-0.8,1.4-1.6,2-2.4c0-0.1,0.1-0.1,0.1-0.2c0.6-0.8,1.4-1.7,2-2.5
	c0,0,0-0.1,0.1-0.1c0.6-0.7,1.3-1.6,1.8-2.4c0.1-0.1,0.1-0.2,0.2-0.3c0.4-0.6,0.9-1.3,1.4-1.9c0.2-0.3,0.4-0.5,0.6-0.8l6.8-9.3
	l-0.2-0.1c11.4-17.2,20.5-35.7,27-55.1C608.5,874,612.6,848.9,612.6,823.5z M543.9,960.7c-0.5,0.6-1.1,1.3-1.7,2
	c-0.1,0.1-0.2,0.2-0.3,0.3c-0.5,0.6-1.2,1.3-1.7,1.9c-0.1,0.1-0.2,0.2-0.3,0.3c-0.5,0.6-1.2,1.3-1.7,1.9c-0.1,0.1-0.2,0.2-0.3,0.3
	c-0.6,0.6-1.2,1.3-1.8,1.9c-0.1,0.1-0.2,0.2-0.2,0.3c-0.6,0.6-1.2,1.3-1.8,1.9c-0.1,0.1-0.2,0.2-0.2,0.2c-0.5,0.6-1.2,1.2-1.7,1.8
	c-0.1,0.1-0.2,0.2-0.3,0.3c-0.5,0.6-1.2,1.2-1.7,1.8c-0.1,0.1-0.3,0.3-0.4,0.4c-0.5,0.5-1.2,1.1-1.7,1.7c-0.2,0.2-0.3,0.3-0.5,0.5
	c-0.5,0.5-1.1,1.1-1.7,1.6c-0.2,0.2-0.4,0.3-0.5,0.5c-0.5,0.5-1.1,1.1-1.6,1.5c-0.2,0.2-0.4,0.4-0.6,0.5c-0.5,0.5-1.1,0.9-1.6,1.5
	c-0.2,0.2-0.4,0.4-0.6,0.6c-0.5,0.4-1.1,0.9-1.6,1.4c-0.2,0.2-0.4,0.4-0.6,0.6c-0.4,0.4-0.9,0.8-1.4,1.2c-0.3,0.2-0.6,0.5-0.9,0.7
	c-0.4,0.3-0.8,0.7-1.3,1.1c-0.3,0.3-0.7,0.5-1.1,0.8c-0.4,0.3-0.8,0.6-1.2,0.9c-0.4,0.3-0.7,0.6-1.2,0.8c-0.4,0.3-0.8,0.6-1.2,0.9
	c-0.3,0.3-0.7,0.5-1.1,0.8c-0.4,0.3-0.8,0.6-1.3,0.9c-0.3,0.2-0.6,0.5-0.9,0.7c-0.5,0.3-0.9,0.7-1.5,1.1c-0.3,0.2-0.6,0.5-1.1,0.7
	c-0.4,0.3-0.9,0.6-1.4,1.1c-0.3,0.2-0.7,0.5-1.1,0.7c-0.4,0.2-0.7,0.5-1.2,0.7c-0.4,0.3-0.9,0.6-1.4,0.9c-0.3,0.2-0.5,0.4-0.8,0.6
	c-0.5,0.4-1.2,0.7-1.7,1.2c-0.2,0.2-0.5,0.3-0.7,0.5c-0.6,0.4-1.2,0.7-1.8,1.2c-0.2,0.1-0.5,0.3-0.7,0.4c-0.6,0.4-1.3,0.7-1.9,1.2
	c-0.2,0.1-0.4,0.3-0.6,0.4c-0.6,0.4-1.3,0.8-1.9,1.2c-0.2,0.1-0.4,0.2-0.6,0.4c-0.6,0.4-1.4,0.8-2,1.2c-0.2,0.1-0.4,0.2-0.6,0.3
	c-0.7,0.4-1.5,0.8-2.2,1.3c-0.1,0.1-0.2,0.1-0.4,0.2c-0.4,0.2-0.8,0.5-1.4,0.7l-0.1,0.1c-0.8,0.4-1.7,0.9-2.5,1.4
	c-0.2,0.1-0.3,0.2-0.5,0.3c-0.7,0.4-1.5,0.7-2.2,1.2c-0.2,0.1-0.4,0.2-0.5,0.3c-0.7,0.3-1.4,0.7-2.1,1.1c-0.2,0.1-0.4,0.2-0.6,0.3
	c-0.7,0.3-1.4,0.7-2.1,1.1c-0.2,0.1-0.4,0.2-0.6,0.3c-0.7,0.3-1.4,0.6-2.1,0.9c-0.2,0.1-0.4,0.2-0.6,0.3c-0.7,0.3-1.4,0.6-2.1,0.9
	c-0.2,0.1-0.4,0.2-0.7,0.3c-0.6,0.3-1.4,0.6-2,0.8c-0.2,0.1-0.5,0.2-0.7,0.3c-0.5,0.2-1.2,0.5-1.7,0.7c-0.3,0.1-0.7,0.3-1.1,0.4
	c-0.4,0.2-0.8,0.3-1.3,0.5c-0.4,0.2-0.8,0.3-1.3,0.5c-0.5,0.2-1.1,0.4-1.6,0.6c-0.3,0.1-0.7,0.3-1.1,0.4c-0.6,0.2-1.2,0.4-1.8,0.6
	c-0.3,0.1-0.7,0.2-1.1,0.4c-0.6,0.2-1.2,0.4-1.8,0.6c-0.3,0.1-0.7,0.2-1.1,0.4c-0.5,0.2-1.2,0.4-1.7,0.6c-0.4,0.1-0.7,0.2-1.2,0.4
	c-0.5,0.2-1.1,0.3-1.6,0.5c-0.4,0.1-0.8,0.3-1.3,0.4c-0.4,0.1-0.9,0.3-1.4,0.4c-0.5,0.1-0.9,0.3-1.5,0.4c-0.3,0.1-0.7,0.2-1.1,0.3
	c-0.6,0.2-1.3,0.3-1.8,0.5c-0.3,0.1-0.7,0.2-1.1,0.3c-0.6,0.2-1.3,0.3-1.9,0.5c-0.3,0.1-0.6,0.2-1.1,0.3c-0.6,0.2-1.3,0.3-1.9,0.5
	c-0.1,0-0.2,0.1-0.3,0.1c3.4-3.5,6.5-7.4,9.7-11.5c14.8-19.7,27.3-46.5,36.1-78.1c25.4,4.5,48.3,10.7,66.9,18.3
	C543.9,960.6,543.9,960.7,543.9,960.7z M323.1,1031.2c-0.3-0.1-0.7-0.2-1.1-0.3c-0.6-0.2-1.3-0.3-1.9-0.5c-0.3-0.1-0.7-0.2-1.1-0.3
	c-0.6-0.2-1.2-0.3-1.8-0.5c-0.4-0.1-0.7-0.2-1.2-0.3c-0.4-0.1-0.9-0.3-1.4-0.4c-0.5-0.1-0.9-0.3-1.5-0.4c-0.4-0.1-0.8-0.2-1.2-0.4
	c-0.5-0.2-1.2-0.3-1.7-0.5c-0.3-0.1-0.7-0.2-1.1-0.4c-0.6-0.2-1.2-0.4-1.8-0.6c-0.3-0.1-0.6-0.2-1.1-0.3c-0.6-0.2-1.3-0.4-1.8-0.6
	c-0.3-0.1-0.6-0.2-0.9-0.3c-0.6-0.2-1.3-0.4-1.8-0.7c-0.3-0.1-0.6-0.2-0.9-0.4c-0.6-0.2-1.2-0.4-1.8-0.7c-0.3-0.1-0.7-0.3-1.1-0.4
	c-0.4-0.2-0.8-0.3-1.4-0.5c-0.3-0.1-0.5-0.2-0.8-0.3c-0.6-0.3-1.4-0.5-2-0.8c-0.2-0.1-0.4-0.2-0.6-0.3c-0.7-0.3-1.4-0.6-2.1-0.9
	c-0.2-0.1-0.4-0.2-0.6-0.3c-0.7-0.3-1.5-0.6-2.1-0.9c-0.2-0.1-0.4-0.2-0.6-0.3c-0.7-0.3-1.5-0.6-2.2-1.1c-0.2-0.1-0.4-0.2-0.5-0.3
	c-0.7-0.3-1.5-0.7-2.2-1.1c-0.2-0.1-0.3-0.2-0.5-0.3c-0.7-0.3-1.5-0.7-2.2-1.2c-0.2-0.1-0.3-0.2-0.5-0.2c-0.7-0.4-1.5-0.8-2.3-1.2
	c-0.1-0.1-0.3-0.1-0.4-0.2c-1.4-0.7-2.7-1.5-4-2.2c-0.1,0-0.1-0.1-0.2-0.1c-0.8-0.4-1.6-0.9-2.4-1.4c-0.2-0.1-0.3-0.2-0.5-0.3
	c-0.7-0.4-1.4-0.8-2.1-1.3c-0.2-0.1-0.4-0.2-0.5-0.3c-0.6-0.4-1.4-0.8-2-1.3c-0.2-0.1-0.4-0.2-0.6-0.4c-0.6-0.4-1.3-0.8-1.9-1.3
	c-0.2-0.1-0.4-0.3-0.6-0.4c-0.6-0.4-1.3-0.8-1.9-1.2c-0.2-0.1-0.5-0.3-0.7-0.4c-0.6-0.4-1.2-0.7-1.7-1.2c-0.3-0.2-0.5-0.3-0.8-0.5
	c-0.5-0.3-0.9-0.6-1.5-1.1c-0.3-0.2-0.6-0.4-1.1-0.7c-0.3-0.2-0.7-0.5-1.1-0.7c-0.4-0.3-0.9-0.6-1.4-0.9c-0.3-0.2-0.7-0.5-1.1-0.7
	c-0.4-0.3-0.9-0.7-1.4-1.1c-0.3-0.2-0.6-0.5-0.9-0.7c-0.4-0.3-0.8-0.6-1.3-0.9c-0.4-0.3-0.7-0.6-1.2-0.8c-0.4-0.3-0.7-0.6-1.2-0.9
	c-0.4-0.3-0.7-0.6-1.2-0.9c-0.4-0.3-0.7-0.6-1.2-0.9c-0.4-0.3-0.7-0.6-1.1-0.9c-0.4-0.3-0.8-0.6-1.3-1.1c-0.3-0.3-0.6-0.5-0.9-0.8
	c-0.4-0.4-0.9-0.7-1.4-1.2c-0.2-0.2-0.4-0.4-0.7-0.6c-0.5-0.4-1.1-0.9-1.6-1.4c-0.2-0.2-0.4-0.4-0.6-0.6c-0.5-0.5-1.1-0.9-1.6-1.5
	c-0.2-0.2-0.4-0.4-0.6-0.5c-0.5-0.5-1.1-0.9-1.6-1.5c-0.2-0.2-0.4-0.3-0.5-0.5c-0.5-0.5-1.1-1.1-1.6-1.6c-0.2-0.2-0.3-0.3-0.5-0.5
	c-0.5-0.5-1.2-1.1-1.7-1.6c-0.1-0.1-0.3-0.3-0.4-0.4c-0.5-0.5-1.2-1.2-1.7-1.7c-0.1-0.1-0.2-0.2-0.3-0.3c-0.5-0.6-1.2-1.2-1.7-1.8
	c-0.1-0.1-0.2-0.2-0.2-0.3c-0.6-0.6-1.2-1.3-1.8-1.9c-0.1-0.1-0.2-0.2-0.2-0.3c-0.6-0.6-1.2-1.3-1.8-1.9c-0.1-0.1-0.2-0.2-0.3-0.3
	c-0.5-0.6-1.2-1.3-1.7-1.9c-0.1-0.1-0.2-0.2-0.3-0.3c-0.5-0.6-1.2-1.3-1.7-1.9c-0.1-0.1-0.2-0.2-0.3-0.3c-0.5-0.6-1.1-1.3-1.7-2
	l-0.1-0.1c18.6-7.6,41.6-13.8,66.9-18.3c8.9,31.6,21.3,58.3,36.1,78.1c3.2,4.2,6.4,8,9.7,11.5c-0.1,0-0.2-0.1-0.3-0.1
	C324.4,1031.6,323.8,1031.4,323.1,1031.2z M213,685.8c0.5-0.6,1.2-1.4,1.7-2c0.1-0.1,0.2-0.2,0.3-0.3c0.5-0.6,1.2-1.4,1.7-2
	c0.1-0.1,0.2-0.2,0.2-0.3c0.6-0.6,1.2-1.4,1.8-2c0.1-0.1,0.1-0.1,0.2-0.2c0.6-0.7,1.3-1.4,1.9-2c0,0,0-0.1,0.1-0.1
	c0.6-0.7,1.3-1.4,1.9-2l0.1-0.1c0.6-0.6,1.3-1.4,1.9-2c0.1-0.1,0.1-0.1,0.2-0.2c0.6-0.6,1.3-1.3,1.9-1.9c0.1-0.1,0.2-0.2,0.2-0.2
	c0.6-0.6,1.3-1.3,1.9-1.8c0.1-0.1,0.2-0.2,0.3-0.3c0.6-0.6,1.3-1.2,1.9-1.8c0.1-0.1,0.2-0.2,0.3-0.3c0.6-0.6,1.3-1.2,1.9-1.8
	c0.1-0.1,0.2-0.2,0.3-0.2c0.6-0.6,1.3-1.2,1.9-1.8c0.1-0.1,0.1-0.1,0.2-0.2c0.6-0.6,1.4-1.2,2-1.8l0.1-0.1c1.4-1.3,2.8-2.4,4.3-3.6
	l0.1-0.1c0.7-0.5,1.4-1.2,2.1-1.7c0.1-0.1,0.1-0.1,0.2-0.2c0.6-0.5,1.4-1.1,2.1-1.6c0.1-0.1,0.2-0.1,0.3-0.2c0.6-0.5,1.4-1.1,2-1.6
	c0.1-0.1,0.2-0.1,0.3-0.2c0.7-0.5,1.4-1.1,2.1-1.6c0.1-0.1,0.2-0.1,0.3-0.2c0.7-0.5,1.4-1.1,2.1-1.5c0.1-0.1,0.2-0.1,0.3-0.2
	c0.7-0.5,1.5-1.1,2.2-1.5c0.1,0,0.1-0.1,0.2-0.1c0.7-0.5,1.5-1.1,2.3-1.6c0,0,0,0,0.1,0c0.7-0.5,1.6-1.1,2.3-1.6c0,0,0,0,0.1,0
	c0.7-0.5,1.6-0.9,2.3-1.5c0.1,0,0.1-0.1,0.2-0.1c0.7-0.4,1.5-0.9,2.2-1.4c0.1-0.1,0.2-0.1,0.3-0.2c0.7-0.4,1.5-0.9,2.2-1.4
	c0.1-0.1,0.2-0.1,0.3-0.2c0.7-0.4,1.5-0.8,2.2-1.3c0.1-0.1,0.2-0.1,0.3-0.2c0.7-0.4,1.5-0.8,2.2-1.3c0.1-0.1,0.2-0.1,0.3-0.2
	c0.7-0.4,1.5-0.8,2.3-1.3c0.1,0,0.2-0.1,0.2-0.1c0.7-0.4,1.6-0.8,2.3-1.3c0,0,0.1,0,0.1-0.1c1.7-0.8,3.3-1.7,4.9-2.5
	c0,0,0.1,0,0.1-0.1c0.8-0.4,1.6-0.7,2.4-1.2c0.1,0,0.2-0.1,0.2-0.1c0.7-0.4,1.6-0.7,2.3-1.1c0.1,0,0.2-0.1,0.3-0.1
	c0.7-0.3,1.6-0.7,2.3-1.1c0.1,0,0.2-0.1,0.3-0.1c0.7-0.3,1.6-0.6,2.3-1.1c0.1,0,0.2-0.1,0.3-0.1c0.8-0.3,1.6-0.6,2.4-0.9
	c0.1,0,0.2-0.1,0.3-0.1c0.8-0.3,1.6-0.6,2.4-0.9c0.1,0,0.1-0.1,0.2-0.1c0.8-0.3,1.7-0.6,2.5-0.9c0,0,0,0,0.1,0
	c0.8-0.3,1.8-0.6,2.6-0.9h0.1c0.8-0.3,1.7-0.6,2.5-0.9c0.1,0,0.1-0.1,0.2-0.1c0.8-0.3,1.7-0.5,2.5-0.8c0.1,0,0.2-0.1,0.3-0.1
	c0.8-0.3,1.7-0.5,2.4-0.7c0.1,0,0.2-0.1,0.3-0.1c0.8-0.2,1.7-0.5,2.4-0.7c0.1,0,0.2-0.1,0.4-0.1c0.8-0.2,1.7-0.5,2.4-0.7
	c0.1,0,0.2-0.1,0.3-0.1c0.8-0.2,1.7-0.4,2.5-0.7c0.1,0,0.2,0,0.3-0.1c0.8-0.2,1.7-0.4,2.6-0.6c0.1,0,0.1,0,0.2,0
	c0.2-0.1,0.4-0.1,0.6-0.2c-3.4,3.6-6.6,7.4-9.9,11.7c-14.8,19.7-27.3,46.3-36.1,77.8c-25.4-4.5-48.2-10.7-66.8-18.2
	C212.9,685.9,213,685.8,213,685.8z M431.9,615c0.8,0.2,1.7,0.4,2.6,0.6c0.1,0,0.2,0,0.3,0.1c0.8,0.2,1.7,0.4,2.5,0.7
	c0.1,0,0.2,0.1,0.3,0.1c0.8,0.2,1.7,0.4,2.4,0.7c0.1,0,0.2,0.1,0.3,0.1c0.8,0.2,1.7,0.5,2.4,0.7c0.1,0,0.2,0.1,0.3,0.1
	c0.8,0.2,1.7,0.5,2.4,0.7c0.1,0,0.2,0.1,0.3,0.1c0.8,0.3,1.7,0.5,2.5,0.8c0.1,0,0.1,0,0.2,0.1c0.8,0.3,1.7,0.6,2.6,0.9
	c0,0,0,0,0.1,0c0.8,0.3,1.8,0.6,2.6,0.9c0,0,0,0,0.1,0c0.8,0.3,1.7,0.6,2.5,0.9c0.1,0,0.1,0.1,0.2,0.1c0.8,0.3,1.7,0.6,2.4,0.9
	c0.1,0,0.2,0.1,0.3,0.1c0.8,0.3,1.6,0.6,2.4,0.9c0.1,0,0.2,0.1,0.3,0.1c0.7,0.3,1.6,0.6,2.3,1.1c0.1,0,0.2,0.1,0.3,0.1
	c0.7,0.3,1.6,0.7,2.3,1.1c0.1,0,0.2,0.1,0.3,0.1c0.8,0.3,1.6,0.7,2.3,1.1c0.1,0,0.2,0.1,0.2,0.1c0.8,0.4,1.6,0.7,2.4,1.2
	c0,0,0.1,0,0.1,0.1c1.7,0.8,3.4,1.7,4.9,2.5c0,0,0.1,0,0.1,0.1c0.8,0.4,1.6,0.8,2.4,1.3c0.1,0,0.2,0.1,0.2,0.1
	c0.7,0.4,1.6,0.8,2.3,1.3c0.1,0.1,0.2,0.1,0.3,0.2c0.7,0.4,1.5,0.8,2.2,1.3c0.1,0.1,0.2,0.1,0.3,0.2c0.7,0.4,1.5,0.8,2.2,1.3
	c0.1,0.1,0.2,0.1,0.3,0.2c0.7,0.4,1.5,0.8,2.2,1.4c0.1,0.1,0.2,0.1,0.3,0.2c0.7,0.4,1.5,0.9,2.2,1.4c0.1,0,0.1,0.1,0.2,0.1
	c0.7,0.5,1.6,0.9,2.3,1.5c0,0,0,0,0.1,0c0.7,0.5,1.6,1.1,2.3,1.6c0,0,0,0,0.1,0c0.7,0.5,1.5,1.1,2.3,1.6c0.1,0,0.1,0.1,0.2,0.1
	c0.7,0.5,1.5,1.1,2.2,1.5c0.1,0.1,0.2,0.1,0.3,0.2c0.7,0.5,1.4,1.1,2.1,1.5c0.1,0.1,0.2,0.1,0.3,0.2c0.7,0.5,1.4,1.1,2.1,1.6
	c0.1,0.1,0.2,0.1,0.3,0.2c0.7,0.5,1.4,1.1,2,1.6c0.1,0.1,0.2,0.1,0.3,0.2c0.7,0.5,1.4,1.1,2,1.6c0.1,0.1,0.1,0.1,0.2,0.2
	c0.7,0.5,1.4,1.2,2.1,1.7l0.1,0.1c1.5,1.2,2.8,2.4,4.3,3.6l0.1,0.1c0.6,0.6,1.4,1.2,2,1.8c0.1,0.1,0.1,0.1,0.2,0.2
	c0.6,0.6,1.3,1.2,1.9,1.8c0.1,0.1,0.2,0.2,0.3,0.2c0.6,0.6,1.3,1.2,1.9,1.8c0.1,0.1,0.2,0.2,0.3,0.3c0.6,0.6,1.3,1.2,1.9,1.8
	c0.1,0.1,0.2,0.2,0.3,0.3c0.6,0.6,1.3,1.3,1.9,1.8c0.1,0.1,0.2,0.2,0.2,0.2c0.6,0.6,1.3,1.3,1.9,1.9c0.1,0.1,0.1,0.1,0.2,0.2
	c0.6,0.6,1.3,1.4,1.9,2l0.1,0.1c0.6,0.6,1.3,1.4,1.9,2c0,0,0,0,0.1,0.1c0.6,0.6,1.3,1.4,1.9,2c0.1,0.1,0.1,0.1,0.2,0.2
	c0.6,0.6,1.2,1.4,1.8,2c0.1,0.1,0.2,0.2,0.2,0.3c0.5,0.6,1.2,1.4,1.7,2c0.1,0.1,0.2,0.2,0.3,0.3c0.5,0.6,1.2,1.4,1.7,2
	c0,0,0.1,0.1,0.1,0.2c-18.6,7.5-41.5,13.7-66.8,18.2c-8.9-31.5-21.3-58.2-36.1-77.8c-3.2-4.2-6.5-8.1-9.9-11.7
	c0.2,0.1,0.4,0.1,0.6,0.2C431.8,615,431.8,615,431.9,615z M492.5,812.6c-0.3-15.6-1.4-31.2-3.2-46.1c-1.8-15-4.3-29.8-7.5-43.8
	c10.7-1.9,20.9-4.1,30.7-6.6c16-4.1,30.5-8.9,43.1-14.4c22.6,32.9,35.5,70.9,37.5,110.9L492.5,812.6L492.5,812.6z M387.9,609.5
	c16.2,3.9,29.3,17.2,37.8,28.4c13,17.4,24.2,41,32.3,69.2c-3.5,0.5-7.1,0.9-10.6,1.4c-19.2,2.2-39.1,3.5-59.5,3.8V609.5z
	 M368.8,609.5v102.8c-20.3-0.3-40.3-1.6-59.5-3.8c-3.6-0.4-7.2-0.8-10.6-1.4c8.2-28.2,19.3-52,32.3-69.2
	C339.6,626.6,352.5,613.4,368.8,609.5z M307,727.5c19.9,2.3,40.6,3.7,61.7,3.9v81.2h-85.5c0.7-30.2,4.3-60,10.5-86.9
	C298.2,726.4,302.6,727,307,727.5z M368.8,831.8V915c-21.2,0.3-41.9,1.7-61.8,4c-4.5,0.5-8.9,1.1-13.3,1.7
	c-6.3-27.6-9.9-58-10.4-88.9L368.8,831.8L368.8,831.8z M309.1,938c19.3-2.2,39.3-3.5,59.6-3.8v103.2c-16.2-3.9-29.3-17.2-37.9-28.5
	c-13-17.4-24.2-41.3-32.4-69.6C302.1,938.8,305.6,938.4,309.1,938z M387.9,1037.4V934.2c20.4,0.3,40.4,1.6,59.6,3.8
	c3.6,0.4,7.2,0.8,10.6,1.4c-8.2,28.3-19.3,52.2-32.4,69.6C417.1,1020.2,404.1,1033.4,387.9,1037.4z M449.6,919
	c-19.9-2.3-40.7-3.7-61.8-4v-83.2h85.6c-0.5,30.9-4.1,61.4-10.4,88.9C458.6,920.1,454.2,919.4,449.6,919z M387.9,812.6v-81.2
	c21-0.3,41.8-1.6,61.7-3.9c4.5-0.5,8.9-1.1,13.3-1.7c6.2,26.9,9.8,56.6,10.5,86.9h-85.5V812.6z M244.1,716.1
	c9.8,2.5,20.1,4.7,30.7,6.6c-3.2,14-5.7,28.7-7.5,43.8c-1.8,15-2.8,30.5-3.2,46.1H163.5c2-40,14.8-78,37.5-110.9
	C213.6,707.2,228.1,712,244.1,716.1z M264.1,831.8c0.3,16.2,1.4,32.2,3.2,47.8c1.8,15.3,4.3,30,7.5,44.2c-10.7,1.9-21,4.2-30.8,6.7
	c-16.1,4.1-30.5,8.9-43.1,14.4c-23-33.6-35.8-72.3-37.4-113h100.7V831.8z M512.7,930.4c-9.8-2.5-20.1-4.7-30.8-6.7
	c3.2-14.1,5.7-28.9,7.5-44.2c1.8-15.6,2.8-31.6,3.2-47.8h100.7c-1.6,40.7-14.3,79.6-37.4,113C543.3,939.3,528.8,934.5,512.7,930.4z"
	/>
<path class="st1" d="M534.7,45.9c31.6,0,76.4,13.4,109.1,65.7c10.9,17.4,16.5,37.6,16.5,58.1v171.1"/>
</svg>
