<?xml version="1.0" encoding="UTF-8"?>
<svg id="Layer_1" data-name="Layer 1" xmlns="http://www.w3.org/2000/svg" viewBox="0 0 1000 800">
  <defs>
    <style>
      .cls-1 {
        fill: #d67086;
      }

      .cls-2 {
        fill: #c5beab;
      }

      .cls-3 {
        fill: #b0babc;
      }

      .cls-4 {
        fill: #292949;
      }

      .cls-5 {
        fill: #fff;
      }

      .cls-6 {
        opacity: .2;
      }

      .cls-6, .cls-7 {
        fill: none;
      }

      .cls-8 {
        opacity: .1;
      }

      .cls-8, .cls-9 {
        fill: #0f0f0f;
        isolation: isolate;
      }

      .cls-10 {
        fill: #c4b9a1;
      }

      .cls-11 {
        fill: #ddc8ac;
      }

      .cls-12 {
        fill: #353a85;
      }

      .cls-13 {
        fill: #efbfa5;
      }

      .cls-14 {
        fill: #171717;
      }

      .cls-15 {
        fill: #40495f;
      }

      .cls-16 {
        fill: #3b3387;
      }

      .cls-17 {
        fill: #7597d3;
      }

      .cls-9 {
        opacity: .15;
      }

      .cls-18 {
        fill: #474ebb;
      }

      .cls-19 {
        fill: #292524;
      }

      .cls-20 {
        fill: #2c2966;
      }

      .cls-21 {
        fill: #dba086;
      }

      .cls-7 {
        opacity: .5;
      }

      .cls-22 {
        fill: #3a332d;
      }

      .cls-23 {
        fill: #57534e;
      }

      .cls-24 {
        fill: #44403c;
      }

      .cls-25 {
        fill: #57534e;
      }

      .cls-26 {
        fill: #78716c;
      }

      .cls-27 {
        fill: #5d66d3;
      }

      .cls-28 {
        fill: #292524;
      }

      .cls-29 {
        fill: #8cabef;
      }

      .cls-30 {
        fill: #9d9d9e;
      }
    </style>
  </defs>
  <g id="shadow">
    <g class="cls-7">
      <path class="cls-14" d="m470.7,651.55c-27.35.09-54.7.77-82,3.93-10.29,1.19-20.37,3.81-30.69,4.87-20.61,2.11-40.85,6.05-61.53,7.86-16.65,1.46-33.38,2.33-49.99,4.18-15.57,1.74-32.81,1.34-48.26-1.54-11.44-2.13-22.93-3.33-34.17-6.74-12.58-3.82-26.25-6.55-39.35-6.46-18.69.14-36.89.16-54.78,6.91-6.28,2.37-13.97,6.26-18.73,11.24-10.92,11.38-12.39,39.78-1.49,51.59,18.36,19.87,57.53,27.66,83.26,28.03,28.19.4,55.59-1.77,83.82-3.05,26.24-1.19,52.41-2.88,78.69-2.82,53.68.12,107.36,0,160.94-3.73,50.34-3.5,100.8-2.3,151.25-2.3s103.12.42,154.48,7.57c22.38,3.11,45.18,4.21,67.67,6.39,20.14,1.96,39.5-.04,59.56-1.84,16.85-1.52,33.58-6.02,48.89-13.62,12.11-6.02,33.71-24.73,37.43-39.1,10.41-40.29-146.78-39.32-170.92-39.23-27,.1-54.22,1.03-81.19-.04-11.35-.45-22.53-2.76-33.61-5.28-11.03-2.52-22.15-1.88-33.34-2.94-46.66-4.41-93.41-3.77-140.22-3.77-15.23,0-30.47-.14-45.71-.09Z"/>
    </g>
  </g>
  <g id="object">
    <g>
      <path class="cls-16" d="m922.61,328.73l-177.86-33.18c-3.69-.69-6.14-4.29-5.44-8l20.77-111.33c.69-3.71,4.28-6.18,7.96-5.5l177.86,33.18c3.69.69,6.14,4.29,5.44,8l-20.77,111.33c-.69,3.71-4.28,6.18-7.96,5.5Z"/>
      <path class="cls-1" d="m791.14,245.46l-32.21-6.01c-.34-.06-.57-.4-.51-.74l4.44-23.81c.06-.34.4-.57.74-.51l32.21,6.01c.34.06.57.4.51.74l-4.44,23.81c-.06.34-.4.57-.74.51Z"/>
      <g class="cls-6">
        <path class="cls-4" d="m792.6,241.08l1.91-10.24c-9.61,6.3-25.25,7.34-34.71,7.32.65,1.01,1.7,1.77,2.97,2.01l24.52,4.57c2.46.46,4.85-1.19,5.31-3.67Z"/>
      </g>
      <g>
        <rect class="cls-25" x="768.57" y="237.95" width="12.58" height="39.35" transform="translate(379.5 972.09) rotate(-79.43)"/>
        <rect class="cls-25" x="811.72" y="246" width="12.58" height="39.35" transform="translate(406.82 1021.07) rotate(-79.43)"/>
        <rect class="cls-25" x="854.86" y="254.05" width="12.58" height="39.35" transform="translate(434.13 1070.06) rotate(-79.43)"/>
        <rect class="cls-25" x="898" y="262.09" width="12.58" height="39.35" transform="translate(461.45 1119.04) rotate(-79.43)"/>
      </g>
      <rect class="cls-25" x="877.67" y="252.99" width="3.81" height="83.23" transform="translate(428.64 1105.23) rotate(-79.43)"/>
    </g>
    <g>
      <path class="cls-12" d="m158.85,443.33c-.85-.2-1.37-1.06-1.17-1.91l9.24-38.77c3.09-12.96-4.92-26.01-17.86-29.09-12.93-3.08-25.97,4.95-29.06,17.9l-9.25,38.77c-.2.85-1.06,1.38-1.9,1.17s-1.37-1.06-1.17-1.91l9.25-38.77c3.49-14.65,18.24-23.74,32.87-20.25,14.63,3.49,23.69,18.25,20.19,32.9l-9.24,38.77c-.2.85-1.05,1.38-1.9,1.17Z"/>
      <polygon class="cls-24" points="159.35 563.14 155.03 554.04 193.84 432.89 197.86 437.1 205.28 440.64 159.35 563.14"/>
      <polygon class="cls-24" points="197.86 437.1 169.81 533.65 205.28 440.64 197.86 437.1"/>
      <polygon class="cls-28" points="75.08 404.57 193.93 432.91 157.76 554.99 36.23 524.23 75.08 404.57"/>
      <polygon class="cls-25" points="185.1 568.65 58.55 542.32 90.61 413.49 205.33 440.7 185.1 568.65"/>
      <polygon class="cls-24" points="58.55 542.32 36.23 524.23 75.08 404.57 84.11 408.8 90.61 413.49 58.55 542.32"/>
      <polygon class="cls-8" points="84.11 408.8 53.51 519.82 58.64 542.34 90.73 413.29 84.11 408.8"/>
      <polygon class="cls-9" points="36.21 524.26 53.51 519.82 58.64 542.34 36.21 524.26"/>
      <g>
        <path class="cls-4" d="m118.98,437.22c.4-1.7-.64-3.41-2.34-3.81s-3.4.65-3.81,2.35c-.4,1.7.64,3.41,2.34,3.81,1.7.41,3.4-.64,3.81-2.35Z"/>
        <path class="cls-10" d="m117.66,436.91c.23-.97-.37-1.95-1.34-2.18-.97-.23-1.94.37-2.18,1.34-.23.97.37,1.95,1.34,2.18.97.23,1.94-.37,2.18-1.34Z"/>
      </g>
      <g>
        <path class="cls-4" d="m168.99,449.15c.4-1.7-.64-3.41-2.34-3.81s-3.4.65-3.81,2.35.64,3.41,2.34,3.81c1.7.4,3.4-.65,3.81-2.35Z"/>
        <path class="cls-10" d="m167.68,448.83c.23-.97-.37-1.95-1.34-2.18-.97-.23-1.94.37-2.18,1.34-.23.97.37,1.95,1.34,2.18.97.23,1.94-.37,2.18-1.34Z"/>
      </g>
      <path class="cls-12" d="m165.61,449.67c-.85-.2-1.37-1.06-1.17-1.91l9.24-38.77c3.09-12.96-4.92-26.01-17.86-29.09-12.93-3.08-25.97,4.95-29.06,17.9l-9.25,38.77c-.2.85-1.06,1.38-1.9,1.17s-1.37-1.06-1.17-1.91l9.25-38.77c3.49-14.65,18.24-23.74,32.87-20.25,14.63,3.49,23.69,18.25,20.2,32.9l-9.24,38.77c-.2.85-1.05,1.38-1.9,1.17Z"/>
    </g>
    <g>
      <polygon class="cls-11" points="356.32 384.43 365.33 375.56 379.54 375.9 381.16 383.1 359.69 392.37 356.32 384.43"/>
      <path class="cls-4" d="m251.43,292.33s7.44,3.52,9.16,22.88,6.5,31.15,6.5,31.15c0,0-5.68,4.5-11.06,2.75-5.38-1.75-7.27-1.9-7.41-9.9s-5.61-44.97-5.61-44.97l8.41-1.9Z"/>
      <path class="cls-4" d="m237.65,302.44c7.55.18,14.75,5.35,17.34,12.46,2.97-4.57,3.57-10.59,1.55-15.66-2.01-5.07-6.59-9.04-11.88-10.31-3.8,3.42-6.18,8.39-6.46,13.5h-.56Z"/>
      <polygon class="cls-18" points="229.6 348.5 206.24 357.7 168.06 389.33 150.61 332.61 129.34 336.43 142.97 405.7 165.34 425.88 229.7 390.42 229.6 348.5"/>
      <g>
        <g>
          <polygon class="cls-22" points="207.59 699.37 206.97 705.48 218.05 713.09 224.51 707.74 219.28 700.88 208.21 693.27 207.59 699.37"/>
          <polygon class="cls-16" points="207.87 512.74 205.99 531.28 222.6 594.97 207.18 697.33 218.53 701.24 248.45 601.32 253.2 572.25 253.03 510.7 207.87 512.74"/>
        </g>
        <g>
          <polygon class="cls-16" points="295.16 533.4 271.29 704.91 260.43 704.91 258.48 594.97 238.73 517.81 295.16 533.4"/>
          <polygon class="cls-22" points="260.5 703.55 260.5 709.72 272.23 715.88 278.1 709.72 272.23 703.55 260.5 703.55"/>
        </g>
        <path class="cls-18" d="m208.47,490c9.27-62.39,5.96-107.83,6.44-120.3.48-12.48,9.03-18.95,9.03-18.95,3.75-.86,7.01-3.33,10.8-4.31,25.62-6.61,39.6,13.44,49.19,35.06,11.82,26.64,21.75,54.16,29.77,82.24,7.05,24.64,14.11,49.51,17.06,75.08,1.22,10.55,2.24,20.56-9.04,25.22-17.97,7.42-38.17,7.26-57.15,9.64-21.8,2.73-43.63,4.73-65.58,5.66-11.46.49.2-26.94,9.47-89.33Z"/>
      </g>
      <polygon class="cls-13" points="133.49 335.68 123.88 326.06 127.15 309.15 136.43 309.15 139.15 323.88 143.86 326.71 143.86 333.82 133.49 335.68"/>
      <polygon class="cls-18" points="247.15 345.15 271.7 349.52 316 392.37 355.71 378.43 368.48 394.71 315.33 425.88 259.15 389.88 247.15 345.15"/>
      <polygon class="cls-16" points="253.2 346.46 257.72 412.8 223.71 349.73 233.63 346.19 240.71 344.07 253.2 346.46"/>
      <path class="cls-13" d="m254.4,308.36c-8.46-18.42-31.73-9.09-34.76,8.28-1.72,9.88,3.52,27.04,15.31,27.2.59,1.67,1.61,4.82,3.2,5.64,1.72.89,5.88-1.4,7.53-2.24.46-.23.93-.5,1.19-.94.33-.55.11-1.75-.21-3.06,1.26-.41,2.51-.98,3.74-1.75,5.15-3.24,7.92-9.44,8.19-15.53.27-6.08-1.65-12.07-4.19-17.6Z"/>
      <path class="cls-4" d="m244.19,289s4.93,9.9-7.74,16.14-18.76,18.88-13.7,29.37,16.98,16.18,12.46,20.39c-4.52,4.21-24.45,6.08-24.45,6.08,0,0-21.33-36.12-9.81-56.91,11.52-20.79,34.09-27.01,43.24-15.07Z"/>
    </g>
    <path class="cls-12" d="m170.31,423.14l3.74-2.06,2.71-11.35c2.02-8.47-.17-16.95-5.19-23.3l-2.43,2.02c4.41,5.6,6.32,13.08,4.54,20.55l-3.37,14.15Z"/>
    <g>
      <path class="cls-13" d="m636.5,285.13c.71-3.37-1.45-12.24-4.52-14.34-7.08-4.84-5.12,6.3-5.31,10.31-1.38-.49-2.7-1.01-4.12-1.22-1.3-.19,1.82,11.79,3.04,12.97,2.93,2.82,5.22,1.62,9.01,1.45.56-3.06,1.25-6.12,1.9-9.17Z"/>
      <polygon class="cls-1" points="710.12 352.46 649.17 336.39 636.04 289.84 622.63 292.34 626.08 332.88 632.5 351.95 683.21 391.1 710.12 352.46"/>
      <g>
        <g>
          <polygon class="cls-27" points="722.53 526.03 780.05 506.73 765.46 606.11 769.8 692.33 769.96 692.91 769.83 692.92 769.84 693.11 758.58 693.86 758.58 693.84 758.16 693.88 735.28 616.52 724.35 534.49 724.35 534.49 722.53 526.03"/>
          <polygon class="cls-15" points="759.05 697.79 770.7 697.83 773.4 707.74 773.1 707.82 773.17 707.83 753.59 718.69 744.41 719.45 743.55 708.95 746.07 707.21 759.05 697.79"/>
        </g>
        <g>
          <polygon class="cls-27" points="677.79 526.63 689.98 697.85 701.23 698.69 715.19 606.82 737.44 515.58 677.79 526.63"/>
          <polygon class="cls-15" points="689.9 701.82 674.73 709.85 675.93 716.93 702.71 713.68 701.43 703.49 689.9 701.82"/>
        </g>
        <path class="cls-1" d="m795.74,554.74c1.2-28.94-24.65-120.99-24.65-120.99h0c-2.73-8.65-4.82-17.45-6.07-26.27-.89-6.28-19.7-77.64-18.46-77.73-12.96.95-37.95-2.12-47.55,7.09-.27.26-.54.54-.78.82-7.48,8.54-11.37,25.82-14.91,36.45-4.65,13.97-8.22,28.3-10.66,42.82-2.13,12.7-3.4,25.52-4.29,38.36-.77,11.04-.16,22.01-.53,32.87-.41,12.02-4.02,25.05-6.71,36.74-2.71,11.78-6.15,23.41-10.9,34.53,12.87,5.7,27.2,7.23,41.27,7.29,14.07.05,28.12-1.3,42.19-1.09,11.9.18,23.94,1.48,35.6-.91,9.27-1.9,17.83-6.02,26.45-10.01h0Z"/>
        <g>
          <path class="cls-4" d="m702.2,299.5c-5.91,2.92-12.08,10.46-11.7,17.47.18,3.38,2.05,6,2.1,9.62.13,7.14,10.96,14.62,4.33,21.5-3.41,3.54-8.73,4.23-13.62,4.72-.59.06-1.22.11-1.76-.12-.9-.38-1.34-1.45-1.32-2.43.02-.98.4-1.91.7-2.85,3.11-9.77-1.59-21.17-2.14-31.13-.55-9.94,1.8-20.67,9.95-27.15,5.46,1.67,9.54,3.97,12.22,9.02l1.24,1.34Z"/>
          <path class="cls-13" d="m705.87,341.92c-6.74-.85-12.47-5.82-15.6-11.84-3.14-6.02-4.01-12.98-4.04-19.77-.11-22.6,27.86-24.12,39.1-7.99,9.8,14.06.14,42.07-19.45,39.6Z"/>
          <path class="cls-4" d="m739.73,344.67c-3.47-.99-6.91-2.08-9.6-5.01-4.34-4.74-5.64-13.67-7.69-19.57-2.16-6.23-4.7-12.95-10.36-16.32-3.7-2.2-7.41-2.03-11.46-1.31-2.77.5-2.67,1.56-5.3.54-2.01-.79-4.21-3.88-5.01-5.78-1.35-3.21-.7-7.01,1-10.05,2.62-4.68,6.26-7.47,11.37-8.58,17.93-3.93,33.54,4.09,42.07,20.69,4.1,7.98,4.14,17.74,8.34,25.37,2.59,4.71,6.47,7.42,8.82,12.52,6.11,13.22,17.26,29.47,19.49,43.94.08.54.14,1.14-.19,1.57-.67.88-2.05.24-2.92-.44-5.06-3.98-10.12-7.96-15.19-11.95-1.99-1.56-4-3.16-5.48-5.21-3.68-5.11-3.77-12.63-8.72-16.53-2.7-2.12-5.95-2.95-9.16-3.87Z"/>
        </g>
        <g>
          <path class="cls-13" d="m822.99,317.15c2.97-1.74,8.08-9.31,7.57-12.99-1.18-8.49-8.11.45-11.2,3.01-.57-1.35-1.07-2.67-1.87-3.87-.73-1.09-7.5,9.28-7.55,10.97-.12,4.07,2.32,4.95,4.98,7.65,2.64-1.65,5.37-3.19,8.06-4.77Z"/>
          <polygon class="cls-1" points="730.04 389.53 795.11 378.7 825.08 317.93 813.17 308.11 781.46 350.2 748.33 348.79 717.66 350.12 730.04 389.53"/>
        </g>
      </g>
    </g>
    <path class="cls-3" d="m559.62,375.88l-.73,4.85.73-4.85Z"/>
    <g>
      <path class="cls-4" d="m596.02,706.85l-262.43,2.29c-5.45.05-9.9-4.33-9.95-9.77l-4.09-469.42c-.05-5.45,4.33-9.9,9.77-9.94l262.43-2.29c5.45-.05,9.9,4.33,9.95,9.77l4.09,469.42c.05,5.44-4.33,9.9-9.77,9.94Z"/>
      <rect class="cls-1" x="342.34" y="244.32" width="240.31" height="396.34" transform="translate(-3.83 4.04) rotate(-.5)"/>
      <path class="cls-14" d="m489.97,688.02l-50.69.44c-3.44.03-6.26-2.73-6.29-6.18l-.07-8.26c-.03-3.44,2.73-6.26,6.18-6.28l50.69-.44c3.44-.03,6.26,2.73,6.29,6.18l.07,8.26c.03,3.44-2.73,6.25-6.18,6.28Z"/>
    </g>
    <g>
      <path class="cls-12" d="m167,588.74c-.88.05-1.63-.62-1.68-1.5l-2.39-40.11c-.8-13.4-12.34-23.66-25.72-22.86-13.38.8-23.62,12.35-22.82,25.76l2.39,40.11c.05.88-.62,1.64-1.5,1.69-.88.05-1.63-.62-1.68-1.5l-2.39-40.11c-.9-15.16,10.67-28.23,25.81-29.13,15.14-.9,28.19,10.7,29.09,25.86l2.39,40.11c.05.88-.62,1.64-1.5,1.69Z"/>
      <polygon class="cls-23" points="202.45 704.21 195.63 696.7 197.72 568.46 202.82 571.35 211.02 572.6 202.45 704.21"/>
      <polygon class="cls-23" points="202.82 571.35 203.94 672.7 211.02 572.6 202.82 571.35"/>
      <polygon class="cls-19" points="74.85 575.79 197.81 568.45 198.54 696.82 72.28 702.6 74.85 575.79"/>
      <polygon class="cls-26" points="228.9 702.02 99.1 713.54 92.44 579.86 211.09 572.64 228.9 702.02"/>
      <polygon class="cls-23" points="99.1 713.54 72.28 702.6 74.85 575.79 84.8 577.23 92.44 579.86 99.1 713.54"/>
      <polygon class="cls-8" points="84.8 577.23 87.67 693.3 99.19 713.54 92.5 579.63 84.8 577.23"/>
      <polygon class="cls-9" points="72.26 702.64 87.67 693.3 99.19 713.54 72.26 702.64"/>
      <g>
        <path class="cls-4" d="m126.74,594.49c-.11-1.76-1.61-3.1-3.37-3-1.76.1-3.1,1.62-2.99,3.38s1.61,3.1,3.37,2.99c1.76-.1,3.1-1.62,2.99-3.37Z"/>
        <path class="cls-2" d="m125.38,594.57c-.06-1.01-.92-1.77-1.93-1.71-1,.06-1.77.92-1.71,1.93.06,1.01.92,1.77,1.93,1.71,1-.06,1.77-.92,1.71-1.93Z"/>
      </g>
      <g>
        <path class="cls-4" d="m178.49,591.4c-.1-1.76-1.61-3.1-3.37-3-1.76.1-3.1,1.62-2.99,3.38s1.61,3.1,3.37,2.99c1.76-.1,3.09-1.61,2.99-3.37Z"/>
        <path class="cls-2" d="m177.13,591.48c-.06-1.01-.92-1.77-1.93-1.71s-1.77.92-1.71,1.93.92,1.77,1.93,1.71,1.77-.92,1.71-1.93Z"/>
      </g>
      <path class="cls-12" d="m175.37,592.89c-.88.05-1.63-.62-1.68-1.5l-2.39-40.11c-.8-13.4-12.34-23.66-25.72-22.86-13.38.8-23.62,12.35-22.82,25.76l2.39,40.11c.05.88-.62,1.64-1.5,1.69-.88.05-1.63-.62-1.68-1.5l-2.39-40.11c-.9-15.16,10.67-28.23,25.81-29.13,15.14-.9,28.19,10.7,29.09,25.86l2.39,40.11c.05.88-.62,1.64-1.5,1.69Z"/>
    </g>
    <g>
      <path class="cls-12" d="m204.31,626.6c.73.02,1.34-.55,1.37-1.28l1.1-33.34c.37-11.14,9.72-19.91,20.84-19.54s19.87,9.73,19.5,20.87l-1.1,33.34c-.02.73.55,1.34,1.28,1.37s1.34-.55,1.37-1.28l1.1-33.34c.42-12.6-9.48-23.19-22.06-23.6-12.58-.42-23.15,9.5-23.57,22.1l-1.1,33.34c-.02.73.55,1.34,1.28,1.37Z"/>
      <polygon class="cls-24" points="177.44 723.2 182.93 716.81 178.37 610.44 174.2 612.96 167.42 614.18 177.44 723.2"/>
      <polygon class="cls-24" points="174.2 612.96 175.51 697.08 167.42 614.18 174.2 612.96"/>
      <polygon class="cls-28" points="280.49 613.82 178.29 610.44 180.52 716.97 285.42 718.99 280.49 613.82"/>
      <polygon class="cls-25" points="155.44 721.96 263.41 728.66 265.98 617.58 167.37 614.21 155.44 721.96"/>
      <polygon class="cls-24" points="263.41 728.66 285.42 718.99 280.49 613.82 272.26 615.23 265.98 617.58 263.41 728.66"/>
      <polygon class="cls-8" points="272.26 615.23 272.45 711.61 263.33 728.66 265.93 617.39 272.26 615.23"/>
      <polygon class="cls-9" points="285.43 719.02 272.45 711.61 263.33 728.66 285.43 719.02"/>
      <g>
        <path class="cls-4" d="m237.84,630.48c.05-1.46,1.27-2.61,2.73-2.56s2.6,1.27,2.56,2.73-1.27,2.61-2.73,2.56c-1.46-.05-2.6-1.27-2.56-2.73Z"/>
        <path class="cls-10" d="m238.97,630.51c.03-.84.73-1.49,1.56-1.46.83.03,1.49.73,1.46,1.56s-.73,1.49-1.56,1.46c-.83-.03-1.49-.73-1.46-1.56Z"/>
      </g>
      <g>
        <path class="cls-4" d="m194.83,629.06c.05-1.46,1.27-2.61,2.73-2.56,1.46.05,2.6,1.27,2.56,2.73s-1.27,2.61-2.73,2.56-2.6-1.27-2.56-2.73Z"/>
        <path class="cls-10" d="m195.96,629.09c.03-.84.73-1.49,1.56-1.46s1.49.73,1.46,1.56-.73,1.49-1.56,1.46c-.83-.03-1.49-.73-1.46-1.56Z"/>
      </g>
      <path class="cls-12" d="m197.45,630.23c.73.02,1.34-.55,1.37-1.28l1.1-33.34c.37-11.14,9.72-19.91,20.84-19.54s19.87,9.73,19.5,20.87l-1.1,33.34c-.02.73.55,1.34,1.28,1.37s1.34-.55,1.37-1.28l1.1-33.34c.42-12.6-9.48-23.19-22.06-23.6-12.58-.41-23.15,9.5-23.57,22.1l-1.1,33.34c-.03.73.55,1.34,1.28,1.37Z"/>
    </g>
    <g>
      <path class="cls-17" d="m557.4,658.99s-13,9.52-12.83,17.93c0,0-1.38,17.73,2.13,24.71l19.55,17.81,36.12-2.32,11.66-51.19-56.64-6.95Z"/>
      <path class="cls-29" d="m597.04,670.37s-15.6-3.66-20.94,6.97l-10.63,19.63,18.73,24.94,156.81-.46-.29-15.45-60.84-14.45c4.03-2.71,7.4-7,9.43-11.36,3.63-7.82.8-13.61-2.13-20.96-.9-2.25-5.17-14.75-8.85-13.77-.01,0-81.3,24.9-81.3,24.9Z"/>
      <g>
        <polygon class="cls-21" points="513.45 476.48 506.9 464.8 511.77 461.79 518.02 468.79 519.66 466.3 524.04 476.97 519.41 480.79 513.45 476.48"/>
        <polygon class="cls-12" points="608.56 503.49 563.57 515.58 523.77 472.86 514.96 480.9 551.61 551.55 606.57 540.41 608.56 503.49"/>
      </g>
      <path class="cls-12" d="m564.22,630.46c9.79-27.26,11.68-56.15,15.2-84.76,1.04-8.44,2.14-17.07,5.91-24.69,4.34-8.75,11.18-13.22,19.06-15.53,10.03-2.94,21.73-2.37,32.06-2.66,9.8.01,17.26,37.08,26.66,55.24,5.76,11.13,11.75,21,15.49,33.06,3.59,11.57,7.01,23.34,8.93,35.32,2.89,18.09,11.38,30.93,2.68,36.77-.79.23-1.55.46-2.27.7-14.1,4.54-28.65,7.77-43.4,9.22-13.09,1.29-26.33,1.18-39.37-.54-17.85-2.35-35.12-5.44-50.6-15.3,3.21-8.94,6.42-17.89,9.64-26.83Z"/>
      <g>
        <polygon class="cls-21" points="640.95 636.81 632.41 647.12 627.84 643.66 632.13 635.31 629.21 634.68 637.59 626.74 642.82 629.69 640.95 636.81"/>
        <polygon class="cls-12" points="635.23 527.57 659.29 574.04 633.85 628.48 644.53 633.8 688.82 576.19 651.85 515.96 635.23 527.57"/>
      </g>
      <g>
        <path class="cls-21" d="m642.14,475.59c-5.03-17.01-29.4-23.67-35.75-4.3-1.91,5.82-3.14,12.02-2.17,18.08.97,6.05,4.46,11.94,9.98,14.58.03.02.06.03.09.04-.27,1.55-.54,3.11-.81,4.66-.06.33-.11.7.07.99.2.33.63.42,1.01.49,1.85.34,3.71.68,5.56,1.02.92.17,1.88.33,2.77.08,1.97-.56,2.85-2.86,3-4.9.04-.49.05-.98.06-1.48,11.15-3.42,19.47-18.14,16.18-29.26Z"/>
        <g>
          <path class="cls-20" d="m613.15,445.88c-4.48-.82-8.45,3.42-12.67,5.58-3.51,1.79-7.45,2.17-11.08,3.63-3.63,1.46-7.26,4.64-7.46,8.77-3.57-2.01-7.43-4.07-11.52-3.42s-8.02,5.38-6.53,9.43c1.33,3.63,5.98,4.62,7.42,8.2,2.28,5.66-4.65,14.1-.24,17.94,1.06.92,2.54,1.19,3.58,2.14,1.29,1.18,1.66,3.15,2.19,4.9,2.43,7.95,10.19,13.35,18.06,12.56,4.95-2.12,8.98-6.71,10.9-12.05,2.31-6.44-1.1-8.82-1.48-14.95-.42-6.7,1.93-13.69,6.3-18.74,2.84-3.28,6.85-6.06,11-6.32,1.69-.11,1.11,1.28,3.04.04.83-.53,2.01-2.61,2.27-3.61-4.41-3.79-7.89-13.02-13.78-14.09Z"/>
          <path class="cls-20" d="m661.51,456.11c2.3.72,4.82.71,7,1.75,3.27,1.56,2.96,5,3.8,8.03.93,3.35,2.3,7.85,4.4,10.5,1.52,1.91,3.68,3.04,5.56,4.54s3.57,3.67,3.44,6.25c-.12,2.45-1.84,4.59-2.16,7.03-.41,3.64.16,5.52-1.09,9.21-.64,1.9-1.36,3.92-2.84,5.18-1.96,1.67-4.66,1.54-7.03,1.07-2.36-.48-4.8-1.21-7.17-.5-5.14,1.55-4.36,6.72-5.85,10.99-2.27,6.49-10.01,10.08-15.75,7.55-4.87-2.14-7.54-7.96-7.13-13.61.2-2.83,1.42-5.43,1.59-8.26.17-2.73-1.25-6.57,1.3-8.66.62-.51,1.4-.76,1.97-1.35.45-.47.72-1.12.89-1.76.6-2.24.18-4.72-1.09-6.5-.92-1.27-2.26-2.23-2.8-3.75-.62-1.74-.02-3.73.16-5.63.42-4.58-1.94-9.17-5.71-11.06-2.48-1.25-4.73-2.01-6.88-3.86-.33-.28-5.19-4.87-5.35-3.92.28-1.66,1.3-3.08,2.33-4.39,1.69-2.14,3.56-4.23,5.88-5.47,7.52-4.02,7.55,5.89,13.51,4.78,1.44-.27,2.56-1.54,3.87-2.28,2.48-1.4,5.44-.77,7.89.42,2.45,1.19,4.67,2.9,7.26,3.71Z"/>
        </g>
      </g>
    </g>
    <g>
      <path class="cls-12" d="m845.83,572.35c.94,0,1.71-.77,1.71-1.71l-.03-43.08c-.01-14.39,11.67-26.11,26.04-26.13,14.37-.01,26.07,11.69,26.08,26.08l.03,43.08c0,.95.77,1.71,1.71,1.71.94,0,1.71-.77,1.71-1.71l-.03-43.08c-.01-16.28-13.25-29.52-29.5-29.5-16.25.01-29.47,13.27-29.45,29.55l.03,43.08c0,.94.77,1.71,1.71,1.71Z"/>
      <polygon class="cls-23" points="815.37 698.19 822.19 689.71 811.65 552.63 806.38 556.05 797.68 557.93 815.37 698.19"/>
      <polygon class="cls-23" points="806.38 556.05 811.74 664.58 797.68 557.93 806.38 556.05"/>
      <polygon class="cls-19" points="943.59 552.52 811.55 552.63 819.09 690.02 954.55 688.04 943.59 552.52"/>
      <polygon class="cls-26" points="786.93 697.56 926.57 701.49 925.03 558.02 797.62 557.97 786.93 697.56"/>
      <polygon class="cls-23" points="926.57 701.49 954.55 688.04 943.59 552.52 933.04 554.71 925.03 558.02 926.57 701.49"/>
      <polygon class="cls-8" points="933.04 554.71 937.49 679.09 926.46 701.49 924.96 557.77 933.04 554.71"/>
      <polygon class="cls-9" points="954.57 688.08 937.49 679.09 926.46 701.49 954.57 688.08"/>
      <g>
        <path class="cls-4" d="m889.28,575.89c0-1.89,1.53-3.42,3.41-3.42,1.89,0,3.42,1.53,3.42,3.42,0,1.89-1.53,3.42-3.41,3.42s-3.42-1.53-3.42-3.42Z"/>
        <path class="cls-2" d="m890.75,575.89c0-1.08.87-1.96,1.95-1.96s1.95.87,1.95,1.95c0,1.08-.87,1.96-1.95,1.96-1.08,0-1.95-.87-1.95-1.95Z"/>
      </g>
      <g>
        <path class="cls-4" d="m833.71,575.93c0-1.89,1.53-3.42,3.41-3.42,1.89,0,3.42,1.53,3.42,3.42,0,1.89-1.53,3.42-3.41,3.42s-3.42-1.53-3.42-3.42Z"/>
        <path class="cls-2" d="m835.17,575.93c0-1.08.87-1.96,1.95-1.96s1.95.87,1.95,1.95c0,1.08-.87,1.96-1.95,1.96-1.08,0-1.95-.87-1.95-1.95Z"/>
      </g>
      <path class="cls-12" d="m837.14,577.33c.94,0,1.71-.77,1.71-1.71l-.03-43.08c-.01-14.39,11.67-26.11,26.04-26.13,14.37-.01,26.07,11.69,26.08,26.08l.03,43.08c0,.95.77,1.71,1.71,1.71.94,0,1.71-.77,1.71-1.71l-.03-43.08c-.01-16.28-13.25-29.52-29.5-29.5-16.25.01-29.47,13.27-29.45,29.55l.03,43.08c0,.95.77,1.71,1.71,1.71Z"/>
    </g>
    <g>
      <path class="cls-12" d="m815.61,607.53c-.84.08-1.58-.54-1.66-1.38l-3.58-38.25c-1.2-12.78-12.55-22.21-25.31-21.01-12.76,1.2-22.17,12.57-20.97,25.35l3.58,38.25c.08.84-.54,1.58-1.37,1.66-.84.08-1.58-.54-1.66-1.38l-3.58-38.25c-1.35-14.46,9.28-27.32,23.72-28.67s27.28,9.31,28.63,23.76l3.58,38.25c.08.84-.54,1.58-1.37,1.66Z"/>
      <polygon class="cls-24" points="853.22 716.71 846.46 709.75 844.31 587.16 849.28 589.76 857.15 590.69 853.22 716.71"/>
      <polygon class="cls-24" points="849.28 589.76 853.62 686.56 857.15 590.69 849.28 589.76"/>
      <polygon class="cls-28" points="727.15 598.14 844.4 587.15 849.24 709.77 728.8 719.38 727.15 598.14"/>
      <polygon class="cls-25" points="878.42 713.76 754.77 728.97 744.09 601.46 857.22 590.73 878.42 713.76"/>
      <polygon class="cls-24" points="754.77 728.97 728.8 719.38 727.15 598.14 736.71 599.19 744.09 601.46 754.77 728.97"/>
      <polygon class="cls-8" points="736.71 599.19 743.2 710 754.86 728.96 744.14 601.23 736.71 599.19"/>
      <polygon class="cls-9" points="728.79 719.42 743.2 710 754.86 728.96 728.79 719.42"/>
      <g>
        <path class="cls-4" d="m777.33,614.32c-.16-1.68-1.64-2.91-3.32-2.75s-2.91,1.64-2.75,3.32c.16,1.68,1.64,2.91,3.32,2.75,1.68-.16,2.91-1.64,2.75-3.32Z"/>
        <path class="cls-10" d="m776.03,614.45c-.09-.96-.94-1.66-1.9-1.57-.96.09-1.66.94-1.57,1.9.09.96.94,1.66,1.9,1.57.96-.09,1.66-.94,1.57-1.9Z"/>
      </g>
      <g>
        <path class="cls-4" d="m826.68,609.7c-.16-1.68-1.64-2.91-3.32-2.75s-2.91,1.64-2.75,3.32c.16,1.68,1.64,2.91,3.32,2.75s2.9-1.64,2.75-3.32Z"/>
        <path class="cls-10" d="m825.38,609.82c-.09-.96-.94-1.66-1.9-1.57-.96.09-1.66.94-1.57,1.9.09.96.94,1.66,1.9,1.57s1.66-.94,1.57-1.9Z"/>
      </g>
      <path class="cls-12" d="m823.75,611.23c-.84.08-1.58-.54-1.66-1.38l-3.58-38.25c-1.2-12.78-12.55-22.21-25.31-21.01-12.76,1.2-22.17,12.57-20.97,25.35l3.58,38.25c.08.84-.54,1.58-1.37,1.66-.84.08-1.58-.54-1.66-1.38l-3.58-38.25c-1.35-14.46,9.28-27.32,23.72-28.67s27.28,9.31,28.63,23.76l3.58,38.25c.08.84-.54,1.58-1.37,1.66Z"/>
    </g>
    <g>
      <path class="cls-5" d="m376.28,490.22c-4.37-.54-8.27-1.82-11.69-3.85l1.76-9.94c3.51,1.88,6.99,3.07,10.47,3.56,3.47.5,7.11.33,10.92-.5,4.2-.92,7.27-2.47,9.21-4.65,1.93-2.18,2.57-4.8,1.9-7.84-.57-2.59-2.07-4.34-4.5-5.27-2.43-.92-6.23-1.47-11.38-1.63-8.02-.21-14.1-1.43-18.21-3.65-4.12-2.22-6.8-6.18-8.04-11.87-.89-4.08-.72-7.91.52-11.5,1.24-3.59,3.44-6.68,6.59-9.27,3.15-2.59,7.06-4.39,11.72-5.41,4.26-.93,8.47-1.09,12.62-.47,4.15.62,7.73,1.95,10.74,4.01l-1.67,9.92c-6.47-3.74-12.98-4.89-19.51-3.47-3.92.86-6.82,2.46-8.69,4.8-1.87,2.34-2.46,5.1-1.77,8.27.59,2.72,2.05,4.57,4.38,5.55,2.33.98,6.07,1.56,11.23,1.72,5.35.26,9.79.83,13.32,1.72,3.53.89,6.42,2.4,8.67,4.51,2.25,2.12,3.78,5.06,4.6,8.81.9,4.14.73,7.96-.53,11.45-1.26,3.5-3.53,6.48-6.8,8.96-3.27,2.48-7.38,4.26-12.32,5.33-4.66,1.02-9.18,1.26-13.55.72Z"/>
      <path class="cls-5" d="m469.76,471.13l-9.59-14.89-29.66,6.48-2.6,17.55-11.08,2.42,12.35-75.1,8.95-1.95,42.62,63.09-11,2.4Zm-37.71-18.91l22.33-4.88-17.63-27.16-4.7,32.04Z"/>
      <path class="cls-5" d="m487.31,467.29l-15.09-69.1,10.99-2.4,12.85,58.82,28.38-6.2,2.25,10.29-39.38,8.6Z"/>
      <path class="cls-5" d="m535.04,456.87l-15.09-69.1,40.57-8.86,2.16,9.9-29.83,6.52,4.18,19.12,28.04-6.12,2.16,9.9-28.04,6.12,4.43,20.28,29.83-6.52,2.16,9.9-40.57,8.86Z"/>
    </g>
    <g>
      <g>
        <polygon class="cls-30" points="663.49 147.8 653.33 146.33 660.28 98.06 701.5 99.2 701.22 109.46 669.14 108.58 663.49 147.8"/>
        <path class="cls-3" d="m631.88,261.62h-142.55c-10.09,0-18.31-8.45-18.5-18.92l-13.67-99.54c-.19-1.41.23-2.84,1.17-3.91.94-1.07,2.29-1.69,3.71-1.69h197.14c1.42,0,2.78.62,3.71,1.69.94,1.07,1.36,2.5,1.17,3.91l-13.67,99.54c-.19,10.47-4.09,18.85-18.5,18.92Z"/>
        <circle class="cls-16" cx="509.21" cy="285.24" r="18.35"/>
        <circle class="cls-16" cx="613.81" cy="285.24" r="18.35"/>
        <path class="cls-5" d="m639.88,172.14l1.59-7.68h-29.25l2.04-14.63h-8.15l-2.04,14.63h-38.87v-14.63h-8.08v14.63h-38.3l-2.04-14.63h-8.15l2.04,14.63h-28.83l1.6,7.68h28.3l3.56,25.59h-26.55l1.59,7.68h26.03l3.56,25.59h-24.28l1.59,7.68h23.75l1.43,10.3h8.15l-1.43-10.3h27.97v10.3h8.08v-10.3h28.54l-1.43,10.3h8.15l1.43-10.3h24.18l1.59-7.68h-24.7l3.56-25.59h26.45l1.59-7.68h-26.98l3.56-25.59h28.73Zm-82.75,58.87h-29.04l-3.56-25.59h32.6v25.59h0Zm0-33.27h-33.67l-3.56-25.59h37.23v25.59h0Zm37.69,33.27h-29.61v-25.59h33.17l-3.56,25.59Zm4.63-33.27h-34.24v-25.59h37.8l-3.56,25.59Z"/>
      </g>
      <path class="cls-1" d="m712.14,113.12l-31.88-1.77c-2.95-.16-5.21-2.69-5.05-5.64l.35-6.41c.16-2.95,2.69-5.21,5.64-5.05l31.88,1.77c2.95.16,5.21,2.69,5.05,5.64l-.35,6.41c-.16,2.95-2.69,5.21-5.64,5.05Z"/>
    </g>
  </g>
</svg>