<?xml version="1.0" encoding="utf-8"?>
<!-- Generator: Adobe Illustrator 27.7.0, SVG Export Plug-In . SVG Version: 6.00 Build 0)  -->
<svg version="1.1" id="Layer_1" xmlns="http://www.w3.org/2000/svg" xmlns:xlink="http://www.w3.org/1999/xlink" x="0px" y="0px"
	 viewBox="0 0 1080 1080" style="enable-background:new 0 0 1080 1080;" xml:space="preserve">
<style type="text/css">
	.st0{fill:none;stroke:#0277FD;stroke-width:65;stroke-miterlimit:10;}
	.st1{fill:none;stroke:#0277FD;stroke-width:64;stroke-linecap:round;stroke-miterlimit:10;}
	.st2{fill:#0277FD;stroke:#0277FD;stroke-width:18;stroke-miterlimit:10;}
</style>
<path class="st0" d="M227.4,571.9c-6.5,4.2-14.8-1.6-14-9.3l29.2-284.1c1.2-13.7,12.6-24.2,26.4-24.2h540.7
	c13.7,0,25.2,10.5,26.4,24.2l54.5,624.6c3.3,37.4-26.1,69.5-63.6,69.8l-176.5,1.5c-7.2,0.1-11.8-7.8-8.3-14.1
	c27.2-49.5,70.4-184.9-22.6-312.5C504.1,498.2,326.6,507.4,227.4,571.9z"/>
<path class="st1" d="M413.1,337.8V165.5c0-21.1,5.9-41.7,17.2-59.3C448.4,78,482.2,42.9,538.7,43"/>
<path class="st2" d="M608.6,822.6c0-0.4,0-0.8,0-1.3c-0.1-24.8-4.2-49.1-12-72.4c-6.4-19-15.3-36.9-26.3-53.6l0.2-0.1l-6.8-9.2
	c-10.4-14-22.3-26.9-35.6-38.2c-13.4-11.4-28-21.2-43.6-29.3c-1.1-0.5-2-1.1-3-1.6s-2-1.1-3-1.5c-0.5-0.2-1.1-0.5-1.6-0.7
	c-9.6-4.5-19.5-8.3-29.6-11.5c-4.2-1.4-8.5-2.4-12.9-3.6c-3.3-0.8-6.7-1.6-10-2.3l0,0h-0.1c-14.5-2.8-29.3-4.3-44.2-4.4l0,0
	c-0.5,0-1.1,0-1.6,0l0,0c-1.7,0-3.3,0-5,0.1c-13.2,0.3-26.2,1.8-39.1,4.3c-3.4,0.7-7,1.5-10.3,2.3c-17.3,4.2-34.1,10.6-49.8,18.8
	c-15.6,8-30.2,17.8-43.6,29.3c-13.3,11.4-25.4,24.2-35.6,38.2l-6.8,9.2l0.2,0.1c-11.2,16.5-20,34.7-26.3,53.6
	c-7.9,23.3-11.9,47.6-12,72.4c0,0.4,0,0.8,0,1.3c0,25,4,49.4,11.8,72.8c6.4,19.1,15.3,37.2,26.4,53.9l-0.2,0.1l6.7,9.1
	c0.2,0.3,0.5,0.6,0.7,0.9c0.4,0.6,0.8,1.2,1.3,1.7c0.1,0.2,0.3,0.4,0.4,0.5c0.5,0.7,1.1,1.4,1.6,2.1c0.1,0.1,0.2,0.3,0.3,0.4
	c0.6,0.7,1.2,1.5,1.8,2.2c0.1,0.1,0.2,0.2,0.2,0.3c0.6,0.7,1.3,1.6,1.9,2.3c0.1,0.1,0.2,0.2,0.3,0.3c0.6,0.7,1.3,1.5,1.9,2.2
	c0.1,0.1,0.2,0.2,0.3,0.3c0.6,0.7,1.3,1.5,1.9,2.2c0.1,0.1,0.2,0.2,0.3,0.3c0.6,0.7,1.3,1.5,1.9,2.1c0.1,0.1,0.2,0.2,0.3,0.4
	c0.6,0.7,1.3,1.4,1.9,2.1c0.1,0.1,0.2,0.2,0.3,0.4c0.6,0.7,1.3,1.4,1.9,2.1c0.1,0.1,0.2,0.3,0.4,0.4c0.6,0.6,1.3,1.4,2,2
	c0.1,0.1,0.3,0.3,0.4,0.4c0.6,0.6,1.3,1.4,2,2c0.1,0.1,0.3,0.3,0.4,0.4c0.6,0.6,1.4,1.3,2,1.9c0.1,0.1,0.3,0.3,0.4,0.4
	c0.6,0.6,1.4,1.3,2,1.9c0.1,0.1,0.3,0.3,0.4,0.4c0.6,0.6,1.4,1.3,2,1.9c0.1,0.1,0.3,0.3,0.4,0.4c0.6,0.6,1.4,1.3,2,1.8
	c0.2,0.1,0.3,0.3,0.5,0.4c0.6,0.5,1.4,1.2,2,1.7c0,0,0,0,0.1,0.1l0,0c0.2,0.1,0.3,0.3,0.5,0.4c0.6,0.5,1.4,1.2,2,1.7
	c0.2,0.2,0.4,0.3,0.6,0.5c0.6,0.5,1.4,1.1,2,1.7c0.2,0.2,0.4,0.3,0.7,0.5c0.6,0.5,1.3,1.1,2,1.6c0.2,0.2,0.5,0.4,0.7,0.6
	c0.6,0.5,1.3,0.9,1.9,1.5c0.3,0.2,0.5,0.4,0.8,0.6c0.6,0.4,1.3,0.9,1.9,1.4c0.3,0.2,0.6,0.4,0.9,0.6c0.6,0.4,1.2,0.8,1.8,1.3
	c0.3,0.2,0.6,0.4,0.9,0.7c0.6,0.4,1.2,0.8,1.8,1.3c0.3,0.2,0.7,0.4,1.1,0.7c0.6,0.4,1.2,0.8,1.8,1.2c0.3,0.2,0.7,0.5,1.1,0.7
	c0.5,0.4,1.2,0.7,1.7,1.2c0.4,0.2,0.7,0.5,1.2,0.7c0.5,0.3,1.2,0.7,1.7,1.1c0.4,0.2,0.8,0.5,1.2,0.7c0.5,0.3,1.2,0.7,1.7,1.1
	c0.4,0.2,0.8,0.5,1.3,0.7c0.5,0.3,1.1,0.6,1.7,0.9c0.4,0.2,0.8,0.5,1.3,0.7c0.5,0.3,1.1,0.6,1.6,0.9c0.4,0.2,0.8,0.5,1.4,0.7
	c0.5,0.3,1.1,0.6,1.6,0.9c0.4,0.2,0.9,0.5,1.4,0.7c0.5,0.3,1.1,0.5,1.6,0.8c0.4,0.2,0.9,0.5,1.5,0.7c0.5,0.2,0.9,0.5,1.5,0.7
	c0,0,0.1,0,0.1,0.1c0,0,0,0,0.1,0c0.2,0.1,0.4,0.2,0.6,0.3c0.2,0.1,0.5,0.2,0.7,0.4c0.3,0.1,0.5,0.3,0.8,0.4
	c0.2,0.1,0.5,0.2,0.7,0.3c0.3,0.1,0.5,0.3,0.8,0.4c0.2,0.1,0.4,0.2,0.7,0.3c0.3,0.1,0.5,0.3,0.8,0.4c0.2,0.1,0.4,0.2,0.6,0.3
	c0.3,0.1,0.6,0.3,0.8,0.4c0.2,0.1,0.4,0.2,0.6,0.3c0.3,0.1,0.6,0.3,0.9,0.4c0.2,0.1,0.4,0.2,0.6,0.3c0.3,0.1,0.6,0.3,0.9,0.4
	c0.2,0.1,0.4,0.2,0.6,0.3c0.3,0.1,0.6,0.3,0.9,0.4c0.2,0.1,0.4,0.2,0.6,0.3c0.3,0.1,0.6,0.3,0.9,0.4c0.2,0.1,0.4,0.2,0.5,0.2
	c0.3,0.1,0.6,0.3,1.1,0.4c0.2,0.1,0.3,0.1,0.5,0.2c0.3,0.1,0.7,0.3,1.1,0.4c0.2,0.1,0.3,0.1,0.5,0.2c0.3,0.1,0.7,0.3,1.1,0.4
	c0.2,0.1,0.3,0.1,0.5,0.2c0.3,0.1,0.7,0.3,1.1,0.4c0.2,0.1,0.3,0.1,0.5,0.2c0.3,0.1,0.7,0.3,1.1,0.4c0.2,0.1,0.3,0.1,0.5,0.2
	c0.4,0.1,0.7,0.3,1.2,0.4c0.2,0.1,0.3,0.1,0.5,0.2c0.4,0.1,0.7,0.3,1.2,0.4c0.1,0.1,0.3,0.1,0.4,0.2c0.4,0.1,0.7,0.3,1.2,0.4
	c0.1,0.1,0.3,0.1,0.4,0.2c0.4,0.1,0.7,0.3,1.2,0.4c0.1,0,0.3,0.1,0.4,0.1c0.4,0.1,0.8,0.3,1.2,0.4c0.1,0,0.3,0.1,0.4,0.1
	c0.4,0.1,0.8,0.3,1.2,0.4c0.1,0,0.3,0.1,0.4,0.1c0.4,0.1,0.8,0.3,1.3,0.4c0.1,0,0.3,0.1,0.4,0.1c0.4,0.1,0.8,0.3,1.3,0.4
	c0.1,0,0.2,0.1,0.4,0.1c0.4,0.1,0.8,0.3,1.3,0.4c0.1,0,0.2,0.1,0.4,0.1c0.4,0.1,0.8,0.3,1.3,0.4c0.1,0,0.2,0.1,0.3,0.1
	c0.4,0.1,0.8,0.3,1.3,0.4c0.1,0,0.2,0.1,0.3,0.1c0.4,0.1,0.8,0.3,1.4,0.4c0.1,0,0.2,0.1,0.3,0.1c0.4,0.1,0.9,0.2,1.4,0.4
	c0.1,0,0.2,0.1,0.3,0.1c0.4,0.1,0.9,0.2,1.4,0.4c0.1,0,0.2,0,0.2,0.1c0.4,0.1,0.9,0.2,1.4,0.4c0.1,0,0.1,0,0.2,0.1
	c0.5,0.1,0.9,0.2,1.5,0.4c0.1,0,0.1,0,0.2,0.1c0.5,0.1,0.9,0.2,1.5,0.4c0.1,0,0.1,0,0.2,0c0.5,0.1,1.1,0.2,1.5,0.4h0.1l0,0
	c0.1,0,0.2,0.1,0.3,0.1c0.4,0.1,0.8,0.2,1.3,0.3h0.1c0.5,0.1,1.1,0.2,1.7,0.4c0,0,0,0,0.1,0c0.5,0.1,1.2,0.2,1.7,0.4l0,0
	c16.4,3.7,33.3,5.6,50.2,5.6c17,0,33.8-1.9,50.2-5.6l0,0c0.5-0.1,1.2-0.2,1.7-0.4l0,0c0.5-0.1,1.2-0.2,1.7-0.4h0.1
	c0.4-0.1,0.8-0.2,1.3-0.3c0.1,0,0.2-0.1,0.3-0.1l0,0c0,0,0,0,0.1,0c0.5-0.1,1.1-0.2,1.6-0.4h0.1c0.5-0.1,1.1-0.2,1.5-0.4
	c0.1,0,0.1,0,0.2,0c0.5-0.1,0.9-0.2,1.5-0.4c0.1,0,0.1,0,0.2-0.1c0.5-0.1,0.9-0.2,1.5-0.4c0.1,0,0.1,0,0.2-0.1
	c0.4-0.1,0.9-0.2,1.4-0.4c0.1,0,0.2,0,0.3-0.1c0.4-0.1,0.9-0.3,1.4-0.4c0.1,0,0.2-0.1,0.3-0.1c0.4-0.1,0.9-0.3,1.4-0.4
	c0.1,0,0.2-0.1,0.3-0.1c0.4-0.1,0.8-0.3,1.4-0.4c0.1,0,0.2-0.1,0.3-0.1c0.4-0.1,0.8-0.3,1.3-0.4c0.1,0,0.2-0.1,0.3-0.1
	c0.4-0.1,0.8-0.3,1.3-0.4c0.1,0,0.2-0.1,0.4-0.1c0.4-0.1,0.8-0.3,1.3-0.4c0.1,0,0.2-0.1,0.4-0.1c0.4-0.1,0.8-0.3,1.3-0.4
	c0.1,0,0.3-0.1,0.4-0.1c0.4-0.1,0.8-0.3,1.3-0.4c0.1,0,0.3-0.1,0.4-0.1c0.4-0.1,0.8-0.3,1.2-0.4c0.1,0,0.3-0.1,0.4-0.1
	c0.4-0.1,0.7-0.3,1.2-0.4c0.1-0.1,0.3-0.1,0.4-0.2c0.4-0.1,0.7-0.3,1.2-0.4c0.1-0.1,0.3-0.1,0.4-0.2c0.4-0.1,0.7-0.3,1.2-0.4
	c0.1-0.1,0.3-0.1,0.4-0.2c0.4-0.1,0.7-0.3,1.2-0.4c0.1-0.1,0.3-0.1,0.4-0.2c0.4-0.1,0.7-0.3,1.2-0.4c0.2-0.1,0.3-0.1,0.5-0.2
	c0.4-0.1,0.7-0.3,1.1-0.4c0.2-0.1,0.3-0.1,0.5-0.2c0.3-0.1,0.7-0.3,1.1-0.4c0.2-0.1,0.3-0.1,0.5-0.2c0.3-0.1,0.7-0.3,1.1-0.4
	c0.2-0.1,0.3-0.1,0.5-0.2c0.3-0.1,0.7-0.3,1.1-0.4c0.2-0.1,0.3-0.1,0.5-0.2c0.3-0.1,0.7-0.3,1.1-0.4c0.2-0.1,0.3-0.2,0.5-0.2
	c0.3-0.1,0.7-0.3,1.1-0.4c0.2-0.1,0.3-0.2,0.5-0.2c0.3-0.1,0.6-0.3,1.1-0.4c0.2-0.1,0.3-0.2,0.5-0.2c0.3-0.1,0.6-0.3,0.9-0.4
	c0.2-0.1,0.4-0.2,0.5-0.3c0.3-0.1,0.6-0.3,0.9-0.4c0.2-0.1,0.4-0.2,0.5-0.3c0.3-0.1,0.6-0.3,0.9-0.4c0.2-0.1,0.4-0.2,0.6-0.3
	c0.3-0.1,0.6-0.3,0.9-0.4c0.2-0.1,0.4-0.2,0.6-0.3c0.3-0.1,0.6-0.3,0.9-0.4c0.2-0.1,0.4-0.2,0.6-0.3c0.2-0.1,0.5-0.2,0.7-0.4h0.1
	c0,0,0.1,0,0.1-0.1c0.4-0.2,0.8-0.4,1.4-0.7c0.6-0.3,1.1-0.5,1.6-0.8c0.5-0.3,1.1-0.5,1.5-0.8c0.5-0.2,0.9-0.5,1.5-0.7
	c0.5-0.3,1.1-0.6,1.6-0.8c0.4-0.2,0.8-0.5,1.4-0.7c0.5-0.3,1.1-0.6,1.7-0.9c0.4-0.2,0.8-0.5,1.3-0.7c0.5-0.3,1.2-0.6,1.7-1.1
	c0.4-0.2,0.8-0.5,1.2-0.7c0.5-0.3,1.2-0.7,1.7-1.1c0.4-0.2,0.7-0.5,1.2-0.7c0.5-0.3,1.2-0.7,1.7-1.2c0.3-0.2,0.7-0.4,1.1-0.7
	c0.6-0.4,1.2-0.7,1.8-1.2c0.3-0.2,0.7-0.4,1.1-0.7c0.6-0.4,1.2-0.8,1.8-1.2c0.3-0.2,0.7-0.4,1.1-0.7c0.6-0.4,1.2-0.8,1.8-1.3
	c0.3-0.2,0.6-0.4,0.9-0.7c0.6-0.4,1.2-0.8,1.8-1.3c0.3-0.2,0.6-0.4,0.9-0.7c0.6-0.4,1.2-0.8,1.8-1.4c0.3-0.2,0.6-0.4,0.9-0.6
	c0.6-0.4,1.3-0.9,1.8-1.4c0.3-0.2,0.5-0.4,0.8-0.6c0.6-0.5,1.3-0.9,1.9-1.5c0.2-0.2,0.5-0.4,0.8-0.6c0.6-0.5,1.3-1.1,1.9-1.6
	c0.2-0.2,0.4-0.4,0.7-0.5c0.6-0.5,1.4-1.2,2-1.7c0.2-0.1,0.4-0.3,0.5-0.4l0,0c0,0,0,0,0.1-0.1c0.6-0.5,1.3-1.2,2-1.7
	c0.2-0.1,0.3-0.3,0.5-0.4c0.6-0.6,1.4-1.2,2-1.8c0.1-0.1,0.3-0.3,0.5-0.4c0.6-0.6,1.4-1.3,2-1.9c0.1-0.1,0.3-0.3,0.4-0.4
	c0.6-0.6,1.4-1.3,2-1.9c0.1-0.1,0.3-0.2,0.4-0.4c0.6-0.6,1.4-1.3,2-2c0.1-0.1,0.2-0.2,0.4-0.4c0.6-0.6,1.4-1.4,2-2
	c0.1-0.1,0.2-0.2,0.3-0.3c0.7-0.7,1.4-1.4,2-2.1c0.1-0.1,0.2-0.2,0.3-0.3c0.6-0.7,1.4-1.5,2-2.1c0.1-0.1,0.2-0.2,0.3-0.3
	c0.6-0.7,1.4-1.5,2-2.2c0.1-0.1,0.2-0.2,0.2-0.3c0.6-0.7,1.4-1.5,2-2.3c0.1-0.1,0.1-0.1,0.2-0.2c0.6-0.7,1.4-1.6,2-2.3
	c0.1-0.1,0.1-0.1,0.2-0.2c0.7-0.8,1.4-1.6,2.1-2.3l0.1-0.1c0.6-0.8,1.4-1.6,2-2.3c0-0.1,0.1-0.1,0.1-0.2c0.6-0.8,1.4-1.7,2-2.4
	c0,0,0-0.1,0.1-0.1c0.6-0.7,1.3-1.6,1.8-2.3c0.1-0.1,0.1-0.2,0.2-0.3c0.4-0.6,0.9-1.3,1.4-1.9c0.2-0.3,0.4-0.5,0.6-0.8l6.7-9.1
	l-0.2-0.1c11.2-16.8,20.1-35,26.4-53.9C604.6,872,608.6,847.5,608.6,822.6z M541.3,956.9c-0.5,0.6-1.1,1.3-1.7,2
	c-0.1,0.1-0.2,0.2-0.3,0.3c-0.5,0.6-1.2,1.3-1.7,1.9c-0.1,0.1-0.2,0.2-0.3,0.3c-0.5,0.6-1.2,1.3-1.7,1.9c-0.1,0.1-0.2,0.2-0.3,0.3
	c-0.6,0.6-1.2,1.3-1.8,1.9c-0.1,0.1-0.2,0.2-0.2,0.3c-0.6,0.6-1.2,1.3-1.8,1.9c-0.1,0.1-0.2,0.2-0.2,0.2c-0.5,0.6-1.2,1.2-1.7,1.8
	c-0.1,0.1-0.2,0.2-0.3,0.3c-0.5,0.6-1.2,1.2-1.7,1.8c-0.1,0.1-0.3,0.3-0.4,0.4c-0.5,0.5-1.2,1.1-1.7,1.7c-0.2,0.2-0.3,0.3-0.5,0.5
	c-0.5,0.5-1.1,1.1-1.7,1.6c-0.2,0.2-0.4,0.3-0.5,0.5c-0.5,0.5-1.1,1.1-1.6,1.5c-0.2,0.2-0.4,0.4-0.6,0.5c-0.5,0.5-1.1,0.9-1.6,1.5
	c-0.2,0.2-0.4,0.4-0.6,0.6c-0.5,0.4-1.1,0.9-1.6,1.4c-0.2,0.2-0.4,0.4-0.6,0.6c-0.4,0.4-0.9,0.8-1.4,1.2c-0.3,0.2-0.6,0.5-0.9,0.7
	c-0.4,0.3-0.8,0.7-1.3,1.1c-0.3,0.3-0.7,0.5-1.1,0.8c-0.4,0.3-0.8,0.6-1.2,0.9c-0.4,0.3-0.7,0.6-1.2,0.8c-0.4,0.3-0.8,0.6-1.2,0.9
	c-0.3,0.3-0.7,0.5-1.1,0.8c-0.4,0.3-0.8,0.6-1.3,0.9c-0.3,0.2-0.6,0.5-0.9,0.7c-0.5,0.3-0.9,0.7-1.5,1.1c-0.3,0.2-0.6,0.5-1.1,0.7
	c-0.4,0.3-0.9,0.6-1.4,1.1c-0.3,0.2-0.7,0.5-1.1,0.7c-0.4,0.2-0.7,0.5-1.2,0.7c-0.4,0.3-0.9,0.6-1.4,0.9c-0.3,0.2-0.5,0.4-0.8,0.6
	c-0.5,0.4-1.2,0.7-1.7,1.2c-0.2,0.2-0.5,0.3-0.7,0.5c-0.6,0.4-1.2,0.7-1.8,1.2c-0.2,0.1-0.5,0.3-0.7,0.4c-0.6,0.4-1.3,0.7-1.9,1.2
	c-0.2,0.1-0.4,0.3-0.6,0.4c-0.6,0.4-1.3,0.8-1.9,1.2c-0.2,0.1-0.4,0.2-0.6,0.4c-0.6,0.4-1.4,0.8-2,1.2c-0.2,0.1-0.4,0.2-0.6,0.3
	c-0.7,0.4-1.5,0.8-2.2,1.3c-0.1,0.1-0.2,0.1-0.4,0.2c-0.4,0.2-0.8,0.5-1.4,0.7l-0.1,0.1c-0.8,0.4-1.7,0.9-2.4,1.4
	c-0.2,0.1-0.3,0.2-0.5,0.3c-0.7,0.4-1.5,0.7-2.2,1.2c-0.2,0.1-0.4,0.2-0.5,0.3c-0.7,0.3-1.4,0.7-2.1,1.1c-0.2,0.1-0.4,0.2-0.6,0.3
	c-0.7,0.3-1.4,0.7-2.1,1.1c-0.2,0.1-0.4,0.2-0.6,0.3c-0.7,0.3-1.4,0.6-2.1,0.9c-0.2,0.1-0.4,0.2-0.6,0.3c-0.7,0.3-1.4,0.6-2.1,0.9
	c-0.2,0.1-0.4,0.2-0.7,0.3c-0.6,0.3-1.4,0.6-2,0.8c-0.2,0.1-0.5,0.2-0.7,0.3c-0.5,0.2-1.2,0.5-1.7,0.7c-0.3,0.1-0.7,0.3-1.1,0.4
	c-0.4,0.2-0.8,0.3-1.3,0.5c-0.4,0.2-0.8,0.3-1.3,0.5c-0.5,0.2-1.1,0.4-1.6,0.6c-0.3,0.1-0.7,0.3-1.1,0.4c-0.6,0.2-1.2,0.4-1.8,0.6
	c-0.3,0.1-0.7,0.2-1.1,0.4c-0.6,0.2-1.2,0.4-1.8,0.6c-0.3,0.1-0.7,0.2-1.1,0.4c-0.5,0.2-1.2,0.4-1.7,0.6c-0.4,0.1-0.7,0.2-1.2,0.4
	c-0.5,0.2-1.1,0.3-1.6,0.5c-0.4,0.1-0.8,0.3-1.3,0.4c-0.4,0.1-0.9,0.3-1.4,0.4c-0.5,0.1-0.9,0.3-1.5,0.4c-0.3,0.1-0.7,0.2-1.1,0.3
	c-0.6,0.2-1.3,0.3-1.8,0.5c-0.3,0.1-0.7,0.2-1.1,0.3c-0.6,0.2-1.3,0.3-1.9,0.5c-0.3,0.1-0.6,0.2-1.1,0.3c-0.6,0.2-1.3,0.3-1.9,0.5
	c-0.1,0-0.2,0.1-0.3,0.1c3.3-3.4,6.4-7.2,9.5-11.3c14.5-19.3,26.7-45.5,35.3-76.5c24.9,4.4,47.3,10.5,65.5,17.9
	C541.3,956.8,541.3,956.9,541.3,956.9z M325.2,1025.9c-0.3-0.1-0.7-0.2-1.1-0.3c-0.6-0.2-1.3-0.3-1.9-0.5c-0.3-0.1-0.7-0.2-1.1-0.3
	c-0.6-0.2-1.2-0.3-1.8-0.5c-0.4-0.1-0.7-0.2-1.2-0.3c-0.4-0.1-0.9-0.3-1.4-0.4c-0.5-0.1-0.9-0.3-1.5-0.4c-0.4-0.1-0.8-0.2-1.2-0.4
	c-0.5-0.2-1.2-0.3-1.7-0.5c-0.3-0.1-0.7-0.2-1.1-0.4c-0.6-0.2-1.2-0.4-1.8-0.6c-0.3-0.1-0.6-0.2-1.1-0.3c-0.6-0.2-1.3-0.4-1.8-0.6
	c-0.3-0.1-0.6-0.2-0.9-0.3c-0.6-0.2-1.3-0.4-1.8-0.7c-0.3-0.1-0.6-0.2-0.9-0.4c-0.6-0.2-1.2-0.4-1.8-0.7c-0.3-0.1-0.7-0.3-1.1-0.4
	c-0.4-0.2-0.8-0.3-1.4-0.5c-0.3-0.1-0.5-0.2-0.8-0.3c-0.6-0.3-1.4-0.5-2-0.8c-0.2-0.1-0.4-0.2-0.6-0.3c-0.7-0.3-1.4-0.6-2.1-0.9
	c-0.2-0.1-0.4-0.2-0.6-0.3c-0.7-0.3-1.5-0.6-2.1-0.9c-0.2-0.1-0.4-0.2-0.6-0.3c-0.7-0.3-1.5-0.6-2.2-1.1c-0.2-0.1-0.4-0.2-0.5-0.3
	c-0.7-0.3-1.5-0.7-2.2-1.1c-0.2-0.1-0.3-0.2-0.5-0.3c-0.7-0.3-1.5-0.7-2.2-1.2c-0.2-0.1-0.3-0.2-0.5-0.2c-0.7-0.4-1.5-0.8-2.3-1.2
	c-0.1-0.1-0.3-0.1-0.4-0.2c-1.4-0.7-2.6-1.5-3.9-2.2c-0.1,0-0.1-0.1-0.2-0.1c-0.8-0.4-1.6-0.9-2.3-1.4c-0.2-0.1-0.3-0.2-0.5-0.3
	c-0.7-0.4-1.4-0.8-2.1-1.3c-0.2-0.1-0.4-0.2-0.5-0.3c-0.6-0.4-1.4-0.8-2-1.3c-0.2-0.1-0.4-0.2-0.6-0.4c-0.6-0.4-1.3-0.8-1.9-1.3
	c-0.2-0.1-0.4-0.3-0.6-0.4c-0.6-0.4-1.3-0.8-1.9-1.2c-0.2-0.1-0.5-0.3-0.7-0.4c-0.6-0.4-1.2-0.7-1.7-1.2c-0.3-0.2-0.5-0.3-0.8-0.5
	c-0.5-0.3-0.9-0.6-1.5-1.1c-0.3-0.2-0.6-0.4-1.1-0.7c-0.3-0.2-0.7-0.5-1.1-0.7c-0.4-0.3-0.9-0.6-1.4-0.9c-0.3-0.2-0.7-0.5-1.1-0.7
	c-0.4-0.3-0.9-0.7-1.4-1.1c-0.3-0.2-0.6-0.5-0.9-0.7c-0.4-0.3-0.8-0.6-1.3-0.9c-0.4-0.3-0.7-0.6-1.2-0.8c-0.4-0.3-0.7-0.6-1.2-0.9
	c-0.4-0.3-0.7-0.6-1.2-0.9c-0.4-0.3-0.7-0.6-1.2-0.9c-0.4-0.3-0.7-0.6-1.1-0.9c-0.4-0.3-0.8-0.6-1.3-1.1c-0.3-0.3-0.6-0.5-0.9-0.8
	c-0.4-0.4-0.9-0.7-1.4-1.2c-0.2-0.2-0.4-0.4-0.7-0.6c-0.5-0.4-1.1-0.9-1.6-1.4c-0.2-0.2-0.4-0.4-0.6-0.6c-0.5-0.5-1.1-0.9-1.6-1.5
	c-0.2-0.2-0.4-0.4-0.6-0.5c-0.5-0.5-1.1-0.9-1.6-1.5c-0.2-0.2-0.4-0.3-0.5-0.5c-0.5-0.5-1.1-1.1-1.6-1.6c-0.2-0.2-0.3-0.3-0.5-0.5
	c-0.5-0.5-1.2-1.1-1.7-1.6c-0.1-0.1-0.3-0.3-0.4-0.4c-0.5-0.5-1.2-1.2-1.7-1.7c-0.1-0.1-0.2-0.2-0.3-0.3c-0.5-0.6-1.2-1.2-1.7-1.8
	c-0.1-0.1-0.2-0.2-0.2-0.3c-0.6-0.6-1.2-1.3-1.8-1.9c-0.1-0.1-0.2-0.2-0.2-0.3c-0.6-0.6-1.2-1.3-1.8-1.9c-0.1-0.1-0.2-0.2-0.3-0.3
	c-0.5-0.6-1.2-1.3-1.7-1.9c-0.1-0.1-0.2-0.2-0.3-0.3c-0.5-0.6-1.2-1.3-1.7-1.9c-0.1-0.1-0.2-0.2-0.3-0.3c-0.5-0.6-1.1-1.3-1.7-2
	l-0.1-0.1c18.2-7.4,40.7-13.5,65.5-17.9c8.7,30.9,20.9,57.1,35.3,76.5c3.1,4.1,6.3,7.8,9.5,11.3c-0.1,0-0.2-0.1-0.3-0.1
	C326.4,1026.3,325.9,1026.1,325.2,1025.9z M217.4,687.8c0.5-0.6,1.2-1.4,1.7-2c0.1-0.1,0.2-0.2,0.3-0.3c0.5-0.6,1.2-1.4,1.7-2
	c0.1-0.1,0.2-0.2,0.2-0.3c0.6-0.6,1.2-1.4,1.8-2c0.1-0.1,0.1-0.1,0.2-0.2c0.6-0.7,1.3-1.4,1.9-2c0,0,0-0.1,0.1-0.1
	c0.6-0.7,1.3-1.4,1.9-2l0.1-0.1c0.6-0.6,1.3-1.4,1.9-2c0.1-0.1,0.1-0.1,0.2-0.2c0.6-0.6,1.3-1.3,1.9-1.9c0.1-0.1,0.2-0.2,0.2-0.2
	c0.6-0.6,1.3-1.3,1.9-1.8c0.1-0.1,0.2-0.2,0.3-0.3c0.6-0.6,1.3-1.2,1.9-1.8c0.1-0.1,0.2-0.2,0.3-0.3c0.6-0.6,1.3-1.2,1.9-1.8
	c0.1-0.1,0.2-0.2,0.3-0.2c0.6-0.6,1.3-1.2,1.9-1.8c0.1-0.1,0.1-0.1,0.2-0.2c0.6-0.6,1.4-1.2,2-1.8l0.1-0.1c1.4-1.3,2.7-2.3,4.2-3.5
	l0.1-0.1c0.7-0.5,1.4-1.2,2.1-1.7c0.1-0.1,0.1-0.1,0.2-0.2c0.6-0.5,1.4-1.1,2.1-1.6c0.1-0.1,0.2-0.1,0.3-0.2c0.6-0.5,1.4-1.1,2-1.6
	c0.1-0.1,0.2-0.1,0.3-0.2c0.7-0.5,1.4-1.1,2.1-1.6c0.1-0.1,0.2-0.1,0.3-0.2c0.7-0.5,1.4-1.1,2.1-1.5c0.1-0.1,0.2-0.1,0.3-0.2
	c0.7-0.5,1.5-1.1,2.2-1.5c0.1,0,0.1-0.1,0.2-0.1c0.7-0.5,1.5-1.1,2.3-1.6c0,0,0,0,0.1,0c0.7-0.5,1.6-1.1,2.3-1.6c0,0,0,0,0.1,0
	c0.7-0.5,1.6-0.9,2.3-1.5c0.1,0,0.1-0.1,0.2-0.1c0.7-0.4,1.5-0.9,2.2-1.4c0.1-0.1,0.2-0.1,0.3-0.2c0.7-0.4,1.5-0.9,2.2-1.4
	c0.1-0.1,0.2-0.1,0.3-0.2c0.7-0.4,1.5-0.8,2.2-1.3c0.1-0.1,0.2-0.1,0.3-0.2c0.7-0.4,1.5-0.8,2.2-1.3c0.1-0.1,0.2-0.1,0.3-0.2
	c0.7-0.4,1.5-0.8,2.3-1.3c0.1,0,0.2-0.1,0.2-0.1c0.7-0.4,1.6-0.8,2.3-1.3c0,0,0.1,0,0.1-0.1c1.7-0.8,3.2-1.7,4.8-2.4
	c0,0,0.1,0,0.1-0.1c0.8-0.4,1.6-0.7,2.3-1.2c0.1,0,0.2-0.1,0.2-0.1c0.7-0.4,1.6-0.7,2.3-1.1c0.1,0,0.2-0.1,0.3-0.1
	c0.7-0.3,1.6-0.7,2.3-1.1c0.1,0,0.2-0.1,0.3-0.1c0.7-0.3,1.6-0.6,2.3-1.1c0.1,0,0.2-0.1,0.3-0.1c0.8-0.3,1.6-0.6,2.3-0.9
	c0.1,0,0.2-0.1,0.3-0.1c0.8-0.3,1.6-0.6,2.3-0.9c0.1,0,0.1-0.1,0.2-0.1c0.8-0.3,1.7-0.6,2.4-0.9c0,0,0,0,0.1,0
	c0.8-0.3,1.8-0.6,2.5-0.9h0.1c0.8-0.3,1.7-0.6,2.4-0.9c0.1,0,0.1-0.1,0.2-0.1c0.8-0.3,1.7-0.5,2.4-0.8c0.1,0,0.2-0.1,0.3-0.1
	c0.8-0.3,1.7-0.5,2.3-0.7c0.1,0,0.2-0.1,0.3-0.1c0.8-0.2,1.7-0.5,2.3-0.7c0.1,0,0.2-0.1,0.4-0.1c0.8-0.2,1.7-0.5,2.3-0.7
	c0.1,0,0.2-0.1,0.3-0.1c0.8-0.2,1.7-0.4,2.4-0.7c0.1,0,0.2,0,0.3-0.1c0.8-0.2,1.7-0.4,2.5-0.6c0.1,0,0.1,0,0.2,0
	c0.2-0.1,0.4-0.1,0.6-0.2c-3.3,3.5-6.5,7.2-9.7,11.5c-14.5,19.3-26.7,45.3-35.3,76.2c-24.9-4.4-47.2-10.5-65.4-17.8
	C217.3,687.9,217.4,687.8,217.4,687.8z M431.7,618.5c0.8,0.2,1.7,0.4,2.5,0.6c0.1,0,0.2,0,0.3,0.1c0.8,0.2,1.7,0.4,2.4,0.7
	c0.1,0,0.2,0.1,0.3,0.1c0.8,0.2,1.7,0.4,2.3,0.7c0.1,0,0.2,0.1,0.3,0.1c0.8,0.2,1.7,0.5,2.3,0.7c0.1,0,0.2,0.1,0.3,0.1
	c0.8,0.2,1.7,0.5,2.3,0.7c0.1,0,0.2,0.1,0.3,0.1c0.8,0.3,1.7,0.5,2.4,0.8c0.1,0,0.1,0,0.2,0.1c0.8,0.3,1.7,0.6,2.5,0.9
	c0,0,0,0,0.1,0c0.8,0.3,1.8,0.6,2.5,0.9c0,0,0,0,0.1,0c0.8,0.3,1.7,0.6,2.4,0.9c0.1,0,0.1,0.1,0.2,0.1c0.8,0.3,1.7,0.6,2.3,0.9
	c0.1,0,0.2,0.1,0.3,0.1c0.8,0.3,1.6,0.6,2.3,0.9c0.1,0,0.2,0.1,0.3,0.1c0.7,0.3,1.6,0.6,2.3,1.1c0.1,0,0.2,0.1,0.3,0.1
	c0.7,0.3,1.6,0.7,2.3,1.1c0.1,0,0.2,0.1,0.3,0.1c0.8,0.3,1.6,0.7,2.3,1.1c0.1,0,0.2,0.1,0.2,0.1c0.8,0.4,1.6,0.7,2.3,1.2
	c0,0,0.1,0,0.1,0.1c1.7,0.8,3.3,1.7,4.8,2.4c0,0,0.1,0,0.1,0.1c0.8,0.4,1.6,0.8,2.3,1.3c0.1,0,0.2,0.1,0.2,0.1
	c0.7,0.4,1.6,0.8,2.3,1.3c0.1,0.1,0.2,0.1,0.3,0.2c0.7,0.4,1.5,0.8,2.2,1.3c0.1,0.1,0.2,0.1,0.3,0.2c0.7,0.4,1.5,0.8,2.2,1.3
	c0.1,0.1,0.2,0.1,0.3,0.2c0.7,0.4,1.5,0.8,2.2,1.4c0.1,0.1,0.2,0.1,0.3,0.2c0.7,0.4,1.5,0.9,2.2,1.4c0.1,0,0.1,0.1,0.2,0.1
	c0.7,0.5,1.6,0.9,2.3,1.5c0,0,0,0,0.1,0c0.7,0.5,1.6,1.1,2.3,1.6c0,0,0,0,0.1,0c0.7,0.5,1.5,1.1,2.3,1.6c0.1,0,0.1,0.1,0.2,0.1
	c0.7,0.5,1.5,1.1,2.2,1.5c0.1,0.1,0.2,0.1,0.3,0.2c0.7,0.5,1.4,1.1,2.1,1.5c0.1,0.1,0.2,0.1,0.3,0.2c0.7,0.5,1.4,1.1,2.1,1.6
	c0.1,0.1,0.2,0.1,0.3,0.2c0.7,0.5,1.4,1.1,2,1.6c0.1,0.1,0.2,0.1,0.3,0.2c0.7,0.5,1.4,1.1,2,1.6c0.1,0.1,0.1,0.1,0.2,0.2
	c0.7,0.5,1.4,1.2,2.1,1.7l0.1,0.1c1.5,1.2,2.7,2.3,4.2,3.5l0.1,0.1c0.6,0.6,1.4,1.2,2,1.8c0.1,0.1,0.1,0.1,0.2,0.2
	c0.6,0.6,1.3,1.2,1.9,1.8c0.1,0.1,0.2,0.2,0.3,0.2c0.6,0.6,1.3,1.2,1.9,1.8c0.1,0.1,0.2,0.2,0.3,0.3c0.6,0.6,1.3,1.2,1.9,1.8
	c0.1,0.1,0.2,0.2,0.3,0.3c0.6,0.6,1.3,1.3,1.9,1.8c0.1,0.1,0.2,0.2,0.2,0.2c0.6,0.6,1.3,1.3,1.9,1.9c0.1,0.1,0.1,0.1,0.2,0.2
	c0.6,0.6,1.3,1.4,1.9,2l0.1,0.1c0.6,0.6,1.3,1.4,1.9,2c0,0,0,0,0.1,0.1c0.6,0.6,1.3,1.4,1.9,2c0.1,0.1,0.1,0.1,0.2,0.2
	c0.6,0.6,1.2,1.4,1.8,2c0.1,0.1,0.2,0.2,0.2,0.3c0.5,0.6,1.2,1.4,1.7,2c0.1,0.1,0.2,0.2,0.3,0.3c0.5,0.6,1.2,1.4,1.7,2
	c0,0,0.1,0.1,0.1,0.2c-18.2,7.3-40.6,13.4-65.4,17.8c-8.7-30.8-20.9-57-35.3-76.2c-3.1-4.1-6.4-7.9-9.7-11.5
	c0.2,0.1,0.4,0.1,0.6,0.2C431.6,618.5,431.6,618.5,431.7,618.5z M491,811.9c-0.3-15.3-1.4-30.5-3.1-45.1
	c-1.8-14.7-4.2-29.2-7.3-42.9c10.5-1.9,20.5-4,30.1-6.5c15.7-4,29.9-8.7,42.2-14.1c22.1,32.2,34.8,69.4,36.7,108.6L491,811.9
	L491,811.9z M388.6,613.1c15.9,3.8,28.7,16.8,37,27.8c12.7,17,23.7,40.1,31.6,67.8c-3.4,0.5-7,0.9-10.4,1.4
	c-18.8,2.2-38.3,3.4-58.3,3.7L388.6,613.1L388.6,613.1z M369.9,613.1v100.6c-19.9-0.3-39.5-1.6-58.3-3.7c-3.5-0.4-7-0.8-10.4-1.4
	c8-27.6,18.9-50.9,31.6-67.8C341.3,629.8,353.9,616.9,369.9,613.1z M309.4,728.6c19.5,2.3,39.7,3.6,60.4,3.8v79.5h-83.7
	c0.7-29.6,4.2-58.7,10.3-85.1C300.8,727.5,305.1,728.1,309.4,728.6z M369.9,830.7v81.5c-20.8,0.3-41,1.7-60.5,3.9
	c-4.4,0.5-8.7,1.1-13,1.7c-6.2-27-9.7-56.8-10.2-87H369.9L369.9,830.7z M311.5,934.7c18.9-2.2,38.5-3.4,58.4-3.7v101
	c-15.9-3.8-28.7-16.8-37.1-27.9C320,987.1,309,963.7,301,936C304.6,935.5,308,935.1,311.5,934.7z M388.6,1032V931
	c20,0.3,39.6,1.6,58.4,3.7c3.5,0.4,7,0.8,10.4,1.4c-8,27.7-18.9,51.1-31.7,68.1C417.2,1015.2,404.5,1028.1,388.6,1032z M449,916.1
	c-19.5-2.3-39.8-3.6-60.5-3.9v-81.5h83.8c-0.5,30.3-4,60.1-10.2,87C457.8,917.2,453.5,916.5,449,916.1z M388.6,811.9v-79.5
	c20.6-0.3,40.9-1.6,60.4-3.8c4.4-0.5,8.7-1.1,13-1.7c6.1,26.3,9.6,55.4,10.3,85.1L388.6,811.9L388.6,811.9z M247.8,717.4
	c9.6,2.4,19.7,4.6,30.1,6.5c-3.1,13.7-5.6,28.1-7.3,42.9c-1.8,14.7-2.7,29.9-3.1,45.1h-98.5c2-39.2,14.5-76.4,36.7-108.6
	C218,708.7,232.2,713.4,247.8,717.4z M267.4,830.7c0.3,15.9,1.4,31.5,3.1,46.8c1.8,15,4.2,29.4,7.3,43.3
	c-10.5,1.9-20.6,4.1-30.2,6.6c-15.8,4-29.9,8.7-42.2,14.1c-22.5-32.9-35.1-70.8-36.6-110.6L267.4,830.7L267.4,830.7L267.4,830.7
	L267.4,830.7z M510.8,927.3c-9.6-2.4-19.7-4.6-30.2-6.6c3.1-13.8,5.6-28.3,7.3-43.3c1.8-15.3,2.7-30.9,3.1-46.8h98.6
	c-1.6,39.8-14,77.9-36.6,110.6C540.8,936,526.6,931.3,510.8,927.3z"/>
<path class="st1" d="M538.7,42.9c31.6,0,76.4,13.4,109.1,65.7c10.9,17.4,16.5,37.6,16.5,58.1v171.1"/>
</svg>
